<svg width="132" height="66" viewBox="0 0 132 66" fill="none" xmlns="http://www.w3.org/2000/svg">
<path d="M42.7953 43.2304H18.2344V0.597104H42.7953V8.00121H27.258V17.3758H41.7196V24.7799H27.258V35.7666H42.7953V43.2304Z" fill="#D5000C"/>
<path d="M79.4018 26.8697C79.4018 29.5766 79.0234 31.9849 78.2664 34.0947C77.5493 36.2045 76.4936 37.9958 75.0992 39.4686C73.7447 40.9017 72.0913 41.9964 70.1392 42.7527C68.1871 43.4692 65.976 43.8275 63.506 43.8275C61.2351 43.8275 59.1236 43.4692 57.1715 42.7527C55.2592 41.9964 53.6059 40.9017 52.2115 39.4686C50.8171 37.9958 49.7216 36.2045 48.9248 34.0947C48.1678 31.9849 47.7894 29.5766 47.7894 26.8697C47.7894 23.2473 48.4268 20.202 49.7017 17.734C50.9765 15.2262 52.8091 13.3154 55.1995 12.0018C57.5898 10.6882 60.4184 10.0314 63.6852 10.0314C66.7529 10.0314 69.4619 10.6882 71.8125 12.0018C74.163 13.3154 76.0155 15.2262 77.37 17.734C78.7246 20.202 79.4018 23.2473 79.4018 26.8697ZM56.8727 26.8697C56.8727 29.0193 57.0918 30.8305 57.5301 32.3034C58.0081 33.7364 58.7452 34.8311 59.7411 35.5874C60.7371 36.304 62.0319 36.6622 63.6255 36.6622C65.2191 36.6622 66.4939 36.304 67.4501 35.5874C68.446 34.8311 69.1631 33.7364 69.6014 32.3034C70.0794 30.8305 70.3185 29.0193 70.3185 26.8697C70.3185 24.7201 70.0794 22.9288 69.6014 21.4958C69.1631 20.0627 68.446 18.9879 67.4501 18.2714C66.4541 17.5549 65.1593 17.1966 63.5657 17.1966C61.2152 17.1966 59.5021 18.0127 58.4265 19.6447C57.3906 21.237 56.8727 23.6453 56.8727 26.8697Z" fill="#D5000C"/>
<path d="M104.389 7.52352C102.676 7.52352 101.143 7.86188 99.788 8.5386C98.4733 9.21532 97.3578 10.1906 96.4415 11.4644C95.5252 12.6984 94.828 14.2111 94.35 16.0024C93.9117 17.7937 93.6926 19.804 93.6926 22.0332C93.6926 25.0585 94.0512 27.646 94.7683 29.7955C95.5252 31.9053 96.7005 33.5175 98.2941 34.6321C99.8876 35.7467 101.919 36.304 104.389 36.304C106.142 36.304 107.875 36.1049 109.589 35.7069C111.341 35.3088 113.234 34.7515 115.266 34.035V41.6182C113.393 42.3745 111.541 42.9318 109.708 43.2901C107.875 43.6484 105.824 43.8275 103.553 43.8275C99.1705 43.8275 95.5452 42.9318 92.6767 41.1405C89.8481 39.3094 87.7566 36.7618 86.402 33.4976C85.0475 30.1936 84.3702 26.3522 84.3702 21.9735C84.3702 18.7491 84.8085 15.8034 85.6849 13.1363C86.5614 10.4294 87.8363 8.10072 89.5095 6.15018C91.2226 4.19964 93.3142 2.68697 95.7842 1.61218C98.2941 0.537395 101.162 0 104.389 0C106.501 0 108.612 0.278649 110.724 0.835947C112.875 1.35344 114.927 2.06996 116.879 2.98552L113.951 10.3299C112.357 9.57358 110.744 8.91676 109.11 8.35947C107.517 7.80217 105.943 7.52352 104.389 7.52352Z" fill="#D5000C"/>
<path d="M4.76876 63.1339H0V54.6072H4.76876V55.5507H1.07566V58.2138H4.55363V59.1452H1.07566V62.1905H4.76876V63.1339Z" fill="#D5000C"/>
<path d="M8.82836 63.2533C8.26264 63.2533 7.75668 63.1379 7.31048 62.907C6.87225 62.6761 6.52564 62.3179 6.27067 61.8322C6.02367 61.3466 5.90017 60.7256 5.90017 59.9692C5.90017 59.1811 6.03164 58.5402 6.29458 58.0466C6.55752 57.553 6.91208 57.1907 7.35828 56.9598C7.81245 56.729 8.32638 56.6135 8.90006 56.6135C9.22675 56.6135 9.54148 56.6493 9.84426 56.721C10.147 56.7847 10.394 56.8643 10.5853 56.9598L10.2626 57.8316C10.0713 57.76 9.84824 57.6923 9.59327 57.6286C9.3383 57.5649 9.09926 57.5331 8.87616 57.5331C8.4459 57.5331 8.09133 57.6246 7.81245 57.8077C7.53358 57.9908 7.32641 58.2615 7.19096 58.6198C7.05551 58.9781 6.98778 59.4239 6.98778 59.9573C6.98778 60.4668 7.05551 60.9007 7.19096 61.259C7.32641 61.6173 7.52959 61.8879 7.8005 62.0711C8.07141 62.2542 8.41004 62.3457 8.8164 62.3457C9.16699 62.3457 9.47375 62.3099 9.73669 62.2382C10.0076 62.1666 10.2546 62.079 10.4777 61.9755V62.907C10.2626 63.0185 10.0235 63.1021 9.76059 63.1578C9.50562 63.2215 9.19488 63.2533 8.82836 63.2533Z" fill="#D5000C"/>
<path d="M17.3317 59.9215C17.3317 60.4549 17.26 60.9286 17.1165 61.3426C16.9811 61.7486 16.7819 62.0949 16.519 62.3816C16.264 62.6682 15.9493 62.8871 15.5748 63.0384C15.2082 63.1817 14.7979 63.2533 14.3437 63.2533C13.9214 63.2533 13.531 63.1817 13.1725 63.0384C12.8139 62.8871 12.5032 62.6682 12.2402 62.3816C11.9773 62.0949 11.7701 61.7486 11.6187 61.3426C11.4753 60.9286 11.4036 60.4549 11.4036 59.9215C11.4036 59.2129 11.5231 58.6158 11.7621 58.1302C12.0012 57.6366 12.3438 57.2624 12.79 57.0076C13.2362 56.7449 13.7661 56.6135 14.3796 56.6135C14.9612 56.6135 15.4712 56.7449 15.9094 57.0076C16.3556 57.2624 16.7022 57.6366 16.9492 58.1302C17.2042 58.6158 17.3317 59.2129 17.3317 59.9215ZM12.4912 59.9215C12.4912 60.423 12.5549 60.8609 12.6824 61.2351C12.8179 61.6013 13.025 61.884 13.3039 62.083C13.5828 62.282 13.9374 62.3816 14.3676 62.3816C14.7979 62.3816 15.1525 62.282 15.4313 62.083C15.7102 61.884 15.9134 61.6013 16.0409 61.2351C16.1763 60.8609 16.2441 60.423 16.2441 59.9215C16.2441 59.4119 16.1763 58.9781 16.0409 58.6198C15.9054 58.2615 15.6983 57.9869 15.4194 57.7958C15.1485 57.5968 14.7939 57.4972 14.3557 57.4972C13.7023 57.4972 13.2282 57.7122 12.9334 58.1421C12.6386 58.572 12.4912 59.1651 12.4912 59.9215Z" fill="#D5000C"/>
<path d="M21.8431 56.6135C22.608 56.6135 23.1857 56.8006 23.5761 57.1748C23.9665 57.541 24.1617 58.1381 24.1617 58.9661V63.1339H23.1219V59.0378C23.1219 58.5203 23.0064 58.1341 22.7753 57.8794C22.5443 57.6246 22.1817 57.4972 21.6877 57.4972C20.9786 57.4972 20.4886 57.6963 20.2177 58.0943C19.9468 58.4924 19.8113 59.0656 19.8113 59.814V63.1339H18.7595V56.7329H19.6081L19.7635 57.6047H19.8233C19.9667 57.3818 20.142 57.1987 20.3491 57.0554C20.5643 56.9041 20.7993 56.7927 21.0543 56.721C21.3093 56.6493 21.5722 56.6135 21.8431 56.6135Z" fill="#D5000C"/>
<path d="M31.4782 59.9215C31.4782 60.4549 31.4065 60.9286 31.2631 61.3426C31.1276 61.7486 30.9284 62.0949 30.6655 62.3816C30.4105 62.6682 30.0958 62.8871 29.7213 63.0384C29.3548 63.1817 28.9444 63.2533 28.4903 63.2533C28.068 63.2533 27.6775 63.1817 27.319 63.0384C26.9604 62.8871 26.6497 62.6682 26.3867 62.3816C26.1238 62.0949 25.9166 61.7486 25.7652 61.3426C25.6218 60.9286 25.5501 60.4549 25.5501 59.9215C25.5501 59.2129 25.6696 58.6158 25.9087 58.1302C26.1477 57.6366 26.4903 57.2624 26.9365 57.0076C27.3827 56.7449 27.9126 56.6135 28.5261 56.6135C29.1078 56.6135 29.6177 56.7449 30.0559 57.0076C30.5021 57.2624 30.8487 57.6366 31.0957 58.1302C31.3507 58.6158 31.4782 59.2129 31.4782 59.9215ZM26.6377 59.9215C26.6377 60.423 26.7015 60.8609 26.829 61.2351C26.9644 61.6013 27.1716 61.884 27.4505 62.083C27.7293 62.282 28.0839 62.3816 28.5142 62.3816C28.9444 62.3816 29.299 62.282 29.5779 62.083C29.8567 61.884 30.0599 61.6013 30.1874 61.2351C30.3229 60.8609 30.3906 60.423 30.3906 59.9215C30.3906 59.4119 30.3229 58.9781 30.1874 58.6198C30.052 58.2615 29.8448 57.9869 29.5659 57.7958C29.295 57.5968 28.9404 57.4972 28.5022 57.4972C27.8488 57.4972 27.3748 57.7122 27.0799 58.1421C26.7851 58.572 26.6377 59.1651 26.6377 59.9215Z" fill="#D5000C"/>
<path d="M39.9337 56.6135C40.6588 56.6135 41.2006 56.8006 41.5592 57.1748C41.9177 57.541 42.097 58.1381 42.097 58.9661V63.1339H41.0572V59.0139C41.0572 58.5123 40.9496 58.1341 40.7345 57.8794C40.5273 57.6246 40.2006 57.4972 39.7544 57.4972C39.1329 57.4972 38.6867 57.6764 38.4158 58.0346C38.1529 58.3929 38.0214 58.9144 38.0214 59.599V63.1339H36.9816V59.0139C36.9816 58.6795 36.9338 58.4009 36.8382 58.1779C36.7426 57.9471 36.5992 57.7759 36.4079 57.6644C36.2167 57.553 35.9697 57.4972 35.6669 57.4972C35.2367 57.4972 34.898 57.5888 34.651 57.7719C34.404 57.9471 34.2247 58.2058 34.1132 58.5481C34.0096 58.8905 33.9578 59.3124 33.9578 59.814V63.1339H32.9061V56.7329H33.7546L33.91 57.6047H33.9698C34.1052 57.3818 34.2686 57.1987 34.4598 57.0554C34.659 56.9041 34.8781 56.7927 35.1171 56.721C35.3562 56.6493 35.6032 56.6135 35.8582 56.6135C36.3522 56.6135 36.7625 56.7011 37.0892 56.8762C37.4238 57.0514 37.6669 57.3221 37.8182 57.6883H37.878C38.0931 57.3221 38.384 57.0514 38.7505 56.8762C39.125 56.7011 39.5194 56.6135 39.9337 56.6135Z" fill="#D5000C"/>
<path d="M42.8329 56.7329H43.9563L45.3427 60.3753C45.4224 60.5902 45.4941 60.7972 45.5579 60.9963C45.6296 61.1953 45.6933 61.3904 45.7491 61.5814C45.8049 61.7645 45.8487 61.9437 45.8806 62.1188H45.9284C45.9762 61.9198 46.0519 61.661 46.1555 61.3426C46.259 61.0162 46.3666 60.6898 46.4782 60.3633L47.7809 56.7329H48.9163L46.1555 64.0176C46.0041 64.4157 45.8248 64.762 45.6176 65.0566C45.4184 65.3591 45.1714 65.59 44.8766 65.7492C44.5898 65.9164 44.2392 66 43.8249 66C43.6336 66 43.4663 65.9881 43.3229 65.9642C43.1795 65.9483 43.056 65.9284 42.9524 65.9045V65.0685C43.04 65.0844 43.1436 65.1004 43.2631 65.1163C43.3906 65.1322 43.5221 65.1402 43.6575 65.1402C43.9045 65.1402 44.1157 65.0924 44.291 64.9969C44.4742 64.9093 44.6296 64.7779 44.7571 64.6028C44.8846 64.4356 44.9922 64.2366 45.0798 64.0057L45.4144 63.1578L42.8329 56.7329Z" fill="#D5000C"/>
<path d="M58.1255 59.9215C58.1255 60.4549 58.0538 60.9286 57.9104 61.3426C57.775 61.7486 57.5758 62.0949 57.3128 62.3816C57.0579 62.6682 56.7431 62.8871 56.3686 63.0384C56.0021 63.1817 55.5918 63.2533 55.1376 63.2533C54.7153 63.2533 54.3249 63.1817 53.9663 63.0384C53.6078 62.8871 53.297 62.6682 53.0341 62.3816C52.7711 62.0949 52.564 61.7486 52.4126 61.3426C52.2692 60.9286 52.1975 60.4549 52.1975 59.9215C52.1975 59.2129 52.317 58.6158 52.556 58.1302C52.7951 57.6366 53.1377 57.2624 53.5839 57.0076C54.0301 56.7449 54.5599 56.6135 55.1735 56.6135C55.7551 56.6135 56.2651 56.7449 56.7033 57.0076C57.1495 57.2624 57.4961 57.6366 57.7431 58.1302C57.9981 58.6158 58.1255 59.2129 58.1255 59.9215ZM53.2851 59.9215C53.2851 60.423 53.3488 60.8609 53.4763 61.2351C53.6118 61.6013 53.8189 61.884 54.0978 62.083C54.3767 62.282 54.7312 62.3816 55.1615 62.3816C55.5918 62.3816 55.9463 62.282 56.2252 62.083C56.5041 61.884 56.7073 61.6013 56.8348 61.2351C56.9702 60.8609 57.0379 60.423 57.0379 59.9215C57.0379 59.4119 56.9702 58.9781 56.8348 58.6198C56.6993 58.2615 56.4921 57.9869 56.2133 57.7958C55.9424 57.5968 55.5878 57.4972 55.1496 57.4972C54.4962 57.4972 54.0221 57.7122 53.7273 58.1421C53.4325 58.572 53.2851 59.1651 53.2851 59.9215Z" fill="#D5000C"/>
<path d="M62.5055 57.545H60.892V63.1339H59.8403V57.545H58.7168V57.0554L59.8403 56.6971V56.3269C59.8403 55.7776 59.9199 55.3317 60.0793 54.9894C60.2466 54.6471 60.4857 54.3963 60.7964 54.237C61.1071 54.0778 61.4816 53.9982 61.9199 53.9982C62.1748 53.9982 62.4059 54.0221 62.6131 54.0699C62.8282 54.1097 63.0115 54.1574 63.1629 54.2132L62.888 55.0372C62.7605 54.9974 62.6131 54.9575 62.4457 54.9177C62.2784 54.8779 62.1071 54.858 61.9318 54.858C61.5812 54.858 61.3183 54.9775 61.143 55.2163C60.9757 55.4472 60.892 55.8134 60.892 56.315V56.7329H62.5055V57.545Z" fill="#D5000C"/>
<path d="M70.0891 55.4313C69.6349 55.4313 69.2246 55.5109 68.8581 55.6701C68.4915 55.8214 68.1808 56.0483 67.9258 56.3508C67.6709 56.6454 67.4756 57.0076 67.3402 57.4375C67.2047 57.8595 67.137 58.3372 67.137 58.8706C67.137 59.5712 67.2446 60.1802 67.4597 60.6977C67.6828 61.2152 68.0095 61.6133 68.4398 61.8919C68.878 62.1706 69.4238 62.3099 70.0771 62.3099C70.4516 62.3099 70.8062 62.2781 71.1409 62.2144C71.4755 62.1507 71.8022 62.0711 72.1209 61.9755V62.907C71.8022 63.0264 71.4715 63.114 71.1289 63.1697C70.7942 63.2255 70.3919 63.2533 69.9218 63.2533C69.0533 63.2533 68.3282 63.0742 67.7465 62.7159C67.1649 62.3577 66.7267 61.8481 66.4319 61.1873C66.145 60.5265 66.0016 59.7503 66.0016 58.8586C66.0016 58.2138 66.0892 57.6246 66.2645 57.0912C66.4478 56.5578 66.7107 56.096 67.0533 55.7059C67.4039 55.3158 67.8342 55.0173 68.3441 54.8103C68.8541 54.5953 69.4397 54.4878 70.101 54.4878C70.5393 54.4878 70.9616 54.5316 71.3679 54.6192C71.7743 54.7068 72.1368 54.8302 72.4555 54.9894L72.0253 55.897C71.7623 55.7776 71.4675 55.6701 71.1409 55.5746C70.8221 55.479 70.4716 55.4313 70.0891 55.4313Z" fill="#D5000C"/>
<path d="M79.1705 59.9215C79.1705 60.4549 79.0988 60.9286 78.9554 61.3426C78.8199 61.7486 78.6207 62.0949 78.3578 62.3816C78.1028 62.6682 77.7881 62.8871 77.4136 63.0384C77.0471 63.1817 76.6367 63.2533 76.1825 63.2533C75.7603 63.2533 75.3698 63.1817 75.0113 63.0384C74.6527 62.8871 74.342 62.6682 74.079 62.3816C73.8161 62.0949 73.6089 61.7486 73.4575 61.3426C73.3141 60.9286 73.2424 60.4549 73.2424 59.9215C73.2424 59.2129 73.3619 58.6158 73.601 58.1302C73.84 57.6366 74.1826 57.2624 74.6288 57.0076C75.075 56.7449 75.6049 56.6135 76.2184 56.6135C76.8001 56.6135 77.31 56.7449 77.7482 57.0076C78.1944 57.2624 78.541 57.6366 78.788 58.1302C79.043 58.6158 79.1705 59.2129 79.1705 59.9215ZM74.33 59.9215C74.33 60.423 74.3938 60.8609 74.5213 61.2351C74.6567 61.6013 74.8639 61.884 75.1427 62.083C75.4216 62.282 75.7762 62.3816 76.2065 62.3816C76.6367 62.3816 76.9913 62.282 77.2702 62.083C77.549 61.884 77.7522 61.6013 77.8797 61.2351C78.0152 60.8609 78.0829 60.423 78.0829 59.9215C78.0829 59.4119 78.0152 58.9781 77.8797 58.6198C77.7443 58.2615 77.5371 57.9869 77.2582 57.7958C76.9873 57.5968 76.6327 57.4972 76.1945 57.4972C75.5411 57.4972 75.067 57.7122 74.7722 58.1421C74.4774 58.572 74.33 59.1651 74.33 59.9215Z" fill="#D5000C"/>
<path d="M87.626 56.6135C88.3511 56.6135 88.8929 56.8006 89.2514 57.1748C89.61 57.541 89.7893 58.1381 89.7893 58.9661V63.1339H88.7495V59.0139C88.7495 58.5123 88.6419 58.1341 88.4268 57.8794C88.2196 57.6246 87.8929 57.4972 87.4467 57.4972C86.8252 57.4972 86.379 57.6764 86.1081 58.0346C85.8452 58.3929 85.7137 58.9144 85.7137 59.599V63.1339H84.6739V59.0139C84.6739 58.6795 84.6261 58.4009 84.5305 58.1779C84.4349 57.9471 84.2915 57.7759 84.1002 57.6644C83.909 57.553 83.662 57.4972 83.3592 57.4972C82.929 57.4972 82.5903 57.5888 82.3433 57.7719C82.0963 57.9471 81.917 58.2058 81.8055 58.5481C81.7019 58.8905 81.6501 59.3124 81.6501 59.814V63.1339H80.5984V56.7329H81.4469L81.6023 57.6047H81.6621C81.7975 57.3818 81.9609 57.1987 82.1521 57.0554C82.3513 56.9041 82.5704 56.7927 82.8094 56.721C83.0485 56.6493 83.2955 56.6135 83.5504 56.6135C84.0445 56.6135 84.4548 56.7011 84.7815 56.8762C85.1161 57.0514 85.3592 57.3221 85.5105 57.6883H85.5703C85.7854 57.3221 86.0763 57.0514 86.4428 56.8762C86.8173 56.7011 87.2117 56.6135 87.626 56.6135Z" fill="#D5000C"/>
<path d="M98.5568 56.6135C99.2818 56.6135 99.8236 56.8006 100.182 57.1748C100.541 57.541 100.72 58.1381 100.72 58.9661V63.1339H99.6802V59.0139C99.6802 58.5123 99.5727 58.1341 99.3575 57.8794C99.1504 57.6246 98.8237 57.4972 98.3775 57.4972C97.756 57.4972 97.3098 57.6764 97.0389 58.0346C96.7759 58.3929 96.6445 58.9144 96.6445 59.599V63.1339H95.6047V59.0139C95.6047 58.6795 95.5569 58.4009 95.4612 58.1779C95.3656 57.9471 95.2222 57.7759 95.031 57.6644C94.8398 57.553 94.5927 57.4972 94.29 57.4972C93.8597 57.4972 93.5211 57.5888 93.2741 57.7719C93.0271 57.9471 92.8478 58.2058 92.7362 58.5481C92.6327 58.8905 92.5809 59.3124 92.5809 59.814V63.1339H91.5291V56.7329H92.3777L92.5331 57.6047H92.5928C92.7283 57.3818 92.8916 57.1987 93.0828 57.0554C93.282 56.9041 93.5011 56.7927 93.7402 56.721C93.9792 56.6493 94.2262 56.6135 94.4812 56.6135C94.9752 56.6135 95.3855 56.7011 95.7122 56.8762C96.0469 57.0514 96.2899 57.3221 96.4413 57.6883H96.501C96.7162 57.3221 97.007 57.0514 97.3735 56.8762C97.748 56.7011 98.1424 56.6135 98.5568 56.6135Z" fill="#D5000C"/>
<path d="M107.814 56.7329V63.1339H106.954L106.798 62.286H106.751C106.615 62.5089 106.44 62.692 106.225 62.8354C106.01 62.9787 105.774 63.0822 105.52 63.1458C105.265 63.2175 104.998 63.2533 104.719 63.2533C104.209 63.2533 103.779 63.1737 103.428 63.0145C103.085 62.8473 102.826 62.5925 102.651 62.2502C102.476 61.9078 102.388 61.466 102.388 60.9246V56.7329H103.452V60.853C103.452 61.3625 103.567 61.7446 103.798 61.9994C104.03 62.2542 104.388 62.3816 104.874 62.3816C105.352 62.3816 105.727 62.294 105.998 62.1188C106.276 61.9357 106.472 61.673 106.583 61.3306C106.703 60.9803 106.763 60.5584 106.763 60.0648V56.7329H107.814Z" fill="#D5000C"/>
<path d="M112.693 56.6135C113.457 56.6135 114.035 56.8006 114.426 57.1748C114.816 57.541 115.011 58.1381 115.011 58.9661V63.1339H113.971V59.0378C113.971 58.5203 113.856 58.1341 113.625 57.8794C113.394 57.6246 113.031 57.4972 112.537 57.4972C111.828 57.4972 111.338 57.6963 111.067 58.0943C110.796 58.4924 110.661 59.0656 110.661 59.814V63.1339H109.609V56.7329H110.458L110.613 57.6047H110.673C110.816 57.3818 110.991 57.1987 111.199 57.0554C111.414 56.9041 111.649 56.7927 111.904 56.721C112.159 56.6493 112.422 56.6135 112.693 56.6135Z" fill="#D5000C"/>
<path d="M117.81 56.7329V63.1339H116.758V56.7329H117.81ZM117.296 54.3326C117.455 54.3326 117.595 54.3883 117.714 54.4998C117.842 54.6033 117.905 54.7705 117.905 55.0013C117.905 55.2243 117.842 55.3914 117.714 55.5029C117.595 55.6144 117.455 55.6701 117.296 55.6701C117.121 55.6701 116.973 55.6144 116.854 55.5029C116.734 55.3914 116.674 55.2243 116.674 55.0013C116.674 54.7705 116.734 54.6033 116.854 54.4998C116.973 54.3883 117.121 54.3326 117.296 54.3326Z" fill="#D5000C"/>
<path d="M125.17 59.9215C125.17 60.4549 125.098 60.9286 124.955 61.3426C124.819 61.7486 124.62 62.0949 124.357 62.3816C124.102 62.6682 123.788 62.8871 123.413 63.0384C123.046 63.1817 122.636 63.2533 122.182 63.2533C121.76 63.2533 121.369 63.1817 121.011 63.0384C120.652 62.8871 120.341 62.6682 120.078 62.3816C119.816 62.0949 119.608 61.7486 119.457 61.3426C119.314 60.9286 119.242 60.4549 119.242 59.9215C119.242 59.2129 119.361 58.6158 119.6 58.1302C119.839 57.6366 120.182 57.2624 120.628 57.0076C121.074 56.7449 121.604 56.6135 122.218 56.6135C122.799 56.6135 123.309 56.7449 123.748 57.0076C124.194 57.2624 124.54 57.6366 124.787 58.1302C125.042 58.6158 125.17 59.2129 125.17 59.9215ZM120.329 59.9215C120.329 60.423 120.393 60.8609 120.521 61.2351C120.656 61.6013 120.863 61.884 121.142 62.083C121.421 62.282 121.776 62.3816 122.206 62.3816C122.636 62.3816 122.991 62.282 123.27 62.083C123.548 61.884 123.752 61.6013 123.879 61.2351C124.015 60.8609 124.082 60.423 124.082 59.9215C124.082 59.4119 124.015 58.9781 123.879 58.6198C123.744 58.2615 123.537 57.9869 123.258 57.7958C122.987 57.5968 122.632 57.4972 122.194 57.4972C121.541 57.4972 121.066 57.7122 120.772 58.1421C120.477 58.572 120.329 59.1651 120.329 59.9215Z" fill="#D5000C"/>
<path d="M129.681 56.6135C130.446 56.6135 131.024 56.8006 131.414 57.1748C131.805 57.541 132 58.1381 132 58.9661V63.1339H130.96V59.0378C130.96 58.5203 130.845 58.1341 130.614 57.8794C130.383 57.6246 130.02 57.4972 129.526 57.4972C128.817 57.4972 128.327 57.6963 128.056 58.0943C127.785 58.4924 127.65 59.0656 127.65 59.814V63.1339H126.598V56.7329H127.446L127.602 57.6047H127.661C127.805 57.3818 127.98 57.1987 128.187 57.0554C128.403 56.9041 128.638 56.7927 128.893 56.721C129.148 56.6493 129.41 56.6135 129.681 56.6135Z" fill="#D5000C"/>
</svg>
