<svg width="60" height="60" viewBox="0 0 60 60" fill="none" xmlns="http://www.w3.org/2000/svg">
<g clip-path="url(#clip0_5_4775)">
<path d="M0 32.4708H19.1914V59.3607H0" stroke="#333333" stroke-width="1.25" stroke-miterlimit="10"/>
<path d="M19.4473 33.4855H25.394V54.2872H19.4473" stroke="#333333" stroke-width="1.25" stroke-miterlimit="10"/>
<path d="M49.1298 52.7651C49.1298 52.7651 37.2363 53.3739 34.3908 52.7651C33.6948 52.6129 32.4359 51.8823 31.7296 51.7504C30.225 51.4764 25.5884 51.7504 25.5884 51.7504V33.4855C25.5884 33.4855 30.051 25.794 30.7061 22.3237C31.1257 20.0609 30.7061 12.1766 31.7296 11.1619C35.4246 7.49874 37.8709 15.2207 37.8709 17.2501C37.8709 19.2796 36.9087 25.4287 38.8944 27.3973C40.4707 28.9599 46.7859 28.412 46.7859 28.412" stroke="#333333" stroke-width="1.25" stroke-miterlimit="10"/>
<path d="M56.5915 28.412H46.786C45.2541 28.412 44.0122 29.6431 44.0122 31.1618V31.7504C44.0122 33.2691 45.2541 34.5003 46.786 34.5003H56.5915C58.1235 34.5003 59.3653 33.2691 59.3653 31.7504V31.1618C59.3653 29.6431 58.1235 28.412 56.5915 28.412Z" stroke="#333333" stroke-width="1.25" stroke-miterlimit="10"/>
<path d="M56.5915 40.5885H46.786C45.2541 40.5885 44.0122 41.8197 44.0122 43.3384V43.9269C44.0122 45.4457 45.2541 46.6768 46.786 46.6768H56.5915C58.1235 46.6768 59.3653 45.4457 59.3653 43.9269V43.3384C59.3653 41.8197 58.1235 40.5885 56.5915 40.5885Z" stroke="#333333" stroke-width="1.25" stroke-miterlimit="10"/>
<path d="M56.5918 46.6768H48.8334C47.3014 46.6768 46.0596 47.908 46.0596 49.4267V50.0152C46.0596 51.5339 47.3014 52.7651 48.8334 52.7651H56.5918C58.1237 52.7651 59.3656 51.5339 59.3656 50.0152V49.4267C59.3656 47.908 58.1237 46.6768 56.5918 46.6768Z" stroke="#333333" stroke-width="1.25" stroke-miterlimit="10"/>
<path d="M56.5917 34.5002H44.7391C43.2072 34.5002 41.9653 35.7314 41.9653 37.2501V37.8387C41.9653 39.3574 43.2072 40.5885 44.7391 40.5885H56.5917C58.1237 40.5885 59.3655 39.3574 59.3655 37.8387V37.2501C59.3655 35.7314 58.1237 34.5002 56.5917 34.5002Z" stroke="#333333" stroke-width="1.25" stroke-miterlimit="10"/>
<path d="M18.4238 21.309L23.5415 19.2796" stroke="#D51317" stroke-width="1.25" stroke-miterlimit="10"/>
<path d="M17.8813 11.862L23.2447 13.1101" stroke="#D51317" stroke-width="1.25" stroke-miterlimit="10"/>
<path d="M22.8965 3.81532L26.571 7.88432" stroke="#D51317" stroke-width="1.25" stroke-miterlimit="10"/>
<path d="M31.6685 0.0710297L32.3235 5.49975" stroke="#D51317" stroke-width="1.25" stroke-miterlimit="10"/>
<path d="M41.0134 1.99899L38.4136 6.81888" stroke="#D51317" stroke-width="1.25" stroke-miterlimit="10"/>
<path d="M47.5639 8.88889L42.6406 11.3546" stroke="#D51317" stroke-width="1.25" stroke-miterlimit="10"/>
<path d="M49.9589 16.2253L44.5034 15.4439" stroke="#D51317" stroke-width="1.25" stroke-miterlimit="10"/>
</g>
<defs>
<clipPath id="clip0_5_4775">
<rect width="60" height="60" fill="white"/>
</clipPath>
</defs>
</svg>
