<svg width="60" height="60" viewBox="0 0 60 60" fill="none" xmlns="http://www.w3.org/2000/svg">
<path d="M7.83217 41.7366C7.83217 41.7366 35.0136 49.959 35.9425 49.9997C36.8715 50.0404 54.368 45.8111 54.9664 43.401C55.5648 40.9909 53.952 39.2953 43.5154 40.0917M43.5154 40.0917L33.3572 41.1882C32.4282 41.1475 24.7945 37.9806 24.7945 37.9806M43.5154 40.0917C43.5827 38.1561 41.9842 34.2238 35.0534 33.9805C34.0908 33.9467 31.3294 32.9777 27.985 29.3719C25.6625 26.868 20.9167 25.7243 7.87093 26.7198M7.83365 45.7419L7.77055 23.1C7.77013 22.9488 7.64781 22.8265 7.49735 22.8269L1.27167 22.8444C1.12121 22.8449 0.99958 22.9678 1 23.1191L1.0631 45.761C1.06352 45.9123 1.18584 46.0345 1.3363 46.0341L7.56198 46.0166C7.71244 46.0162 7.83407 45.8932 7.83365 45.7419Z" stroke="#333333" stroke-width="1.25" stroke-linecap="round" stroke-linejoin="round"/>
<path d="M48.7837 30.5426L48.3735 31.0142C48.6087 31.2187 48.9587 31.2187 49.1939 31.0142L48.7837 30.5426ZM48.7837 13.5L48.3474 13.9475C48.5901 14.1842 48.9773 14.1842 49.22 13.9475L48.7837 13.5ZM58.375 16.1558C58.375 17.3596 57.8072 18.8271 56.8669 20.4044C55.9362 21.9655 54.6862 23.56 53.4222 24.9997C52.1603 26.4369 50.8966 27.7064 49.9473 28.6172C49.473 29.0723 49.0782 29.437 48.8025 29.6874C48.6647 29.8125 48.5567 29.9091 48.4835 29.974C48.4469 30.0065 48.4191 30.0311 48.4005 30.0474C48.3913 30.0555 48.3843 30.0616 48.3798 30.0655C48.3775 30.0675 48.3759 30.069 48.3748 30.0699C48.3743 30.0703 48.3739 30.0706 48.3737 30.0708C48.3736 30.0709 48.3736 30.071 48.3735 30.071C48.3735 30.071 48.3735 30.071 48.7837 30.5426C49.1939 31.0142 49.194 31.0141 49.1941 31.0139C49.1942 31.0138 49.1944 31.0137 49.1946 31.0135C49.195 31.0131 49.1956 31.0127 49.1963 31.012C49.1977 31.0108 49.1998 31.009 49.2024 31.0067C49.2077 31.0021 49.2154 30.9953 49.2255 30.9865C49.2456 30.9688 49.2751 30.9428 49.3134 30.9088C49.3899 30.8409 49.5014 30.7412 49.6429 30.6127C49.9259 30.3556 50.3292 29.9831 50.8127 29.5192C51.779 28.592 53.0693 27.2962 54.3615 25.8244C55.6516 24.355 56.9557 22.6965 57.9406 21.0444C58.9158 19.4085 59.625 17.7024 59.625 16.1558H58.375ZM48.7837 30.5426C49.1939 30.071 49.1939 30.071 49.1939 30.071C49.1938 30.071 49.1938 30.0709 49.1937 30.0708C49.1935 30.0706 49.1931 30.0703 49.1926 30.0699C49.1915 30.069 49.1899 30.0675 49.1876 30.0655C49.1831 30.0616 49.1762 30.0555 49.1669 30.0474C49.1483 30.0311 49.1205 30.0065 49.0839 29.974C49.0107 29.9091 48.9028 29.8125 48.7649 29.6874C48.4892 29.437 48.0944 29.0723 47.6201 28.6172C46.6709 27.7064 45.4071 26.4369 44.1452 24.9997C42.8812 23.56 41.6312 21.9655 40.7005 20.4044C39.7602 18.8271 39.1924 17.3596 39.1924 16.1558H37.9424C37.9424 17.7024 38.6516 19.4085 39.6268 21.0444C40.6117 22.6965 41.9158 24.355 43.2059 25.8244C44.4981 27.2962 45.7884 28.592 46.7547 29.5192C47.2382 29.9831 47.6415 30.3556 47.9245 30.6127C48.066 30.7412 48.1776 30.8409 48.2541 30.9088C48.2923 30.9428 48.3218 30.9688 48.3419 30.9865C48.352 30.9953 48.3597 31.0021 48.365 31.0067C48.3676 31.009 48.3697 31.0108 48.3711 31.012C48.3718 31.0127 48.3724 31.0131 48.3728 31.0135C48.373 31.0137 48.3732 31.0138 48.3733 31.0139C48.3734 31.0141 48.3735 31.0142 48.7837 30.5426ZM39.1924 16.1558C39.1924 13.5472 40.2601 11.8206 41.76 11.2773C43.2699 10.7304 45.5781 11.2472 48.3474 13.9475L49.22 13.0525C46.3136 10.2184 43.5136 9.31264 41.3343 10.102C39.145 10.895 37.9424 13.2634 37.9424 16.1558H39.1924ZM49.22 13.9475C51.9893 11.2472 54.2975 10.7304 55.8074 11.2773C57.3074 11.8206 58.375 13.5472 58.375 16.1558H59.625C59.625 13.2634 58.4224 10.895 56.2331 10.102C54.0538 9.31264 51.2538 10.2184 48.3474 13.0525L49.22 13.9475Z" fill="#D51317"/>
</svg>
