<svg width="60" height="60" viewBox="0 0 60 60" fill="none" xmlns="http://www.w3.org/2000/svg">
<rect x="46.6826" y="1" width="16.933" height="4.97041" rx="0.2" transform="rotate(42.8395 46.6826 1)" stroke="#333333" stroke-width="1.25"/>
<path d="M40.0893 23.7754C40.9449 24.7751 41.2374 27.4805 40.9541 28.7732C40.6708 30.0659 40.0505 31.2607 39.1561 32.2361C38.2618 33.2116 37.1253 33.933 35.8619 34.3272C34.5986 34.7214 33.2535 34.7743 31.9631 34.4805C30.6727 34.1867 29.4831 33.5567 28.5149 32.6545C27.6539 31.8522 26.828 30.6704 26.5137 29.656" stroke="#D51317" stroke-width="1.25"/>
<path d="M45.5894 6.77441C45.5894 6.77441 27.5895 17.2734 27.1026 17.752C26.6158 18.2305 20.1145 29.7305 21.1019 31.252C22.0894 32.7734 23.8023 32.752 28.6023 26.752L33.1027 20.752C33.5895 20.2734 39.1027 17.752 39.1027 17.752" stroke="#333333" stroke-width="1.25" stroke-linecap="round" stroke-linejoin="round"/>
<path d="M28.6025 26.752C29.6025 27.752 32.5025 28.852 36.1025 25.252C36.6025 24.752 38.5025 23.752 42.1025 23.752C44.6025 23.752 47.5894 21.7734 53.5894 14.2734" stroke="#333333" stroke-width="1.25" stroke-linecap="round" stroke-linejoin="round"/>
<path d="M14.9406 37.0891C14.9777 37.0334 15.0402 37 15.107 37H43.893C43.9598 37 44.0223 37.0334 44.0594 37.0891L47.7927 42.6891C47.8813 42.822 47.786 43 47.6263 43H11.3737C11.214 43 11.1187 42.822 11.2073 42.6891L14.9406 37.0891Z" stroke="#333333" stroke-width="1.25"/>
<rect x="14" y="43" width="31" height="16" rx="0.2" stroke="#333333" stroke-width="1.25"/>
<line x1="19.625" y1="39.875" x2="39.375" y2="39.875" stroke="#333333" stroke-width="1.25" stroke-linecap="round"/>
</svg>
