<svg width="60" height="60" viewBox="0 0 60 60" fill="none" xmlns="http://www.w3.org/2000/svg">
<circle cx="30" cy="30" r="29.5" transform="matrix(-4.37114e-08 -1 -1 4.37114e-08 60 60)" stroke="#B67435"/>
<mask id="path-2-inside-1_5_1958" fill="white">
<path d="M21 29.4999C21 29.1075 21.3211 28.7893 21.7171 28.7893L35.5515 28.7895L32.951 26.2129C32.6709 25.9355 32.6709 25.4856 32.951 25.2081C33.231 24.9306 33.6851 24.9306 33.9652 25.2081L37.79 28.9976C38.07 29.2751 38.07 29.7249 37.79 30.0024L33.9652 33.7919C33.6851 34.0694 33.2311 34.0694 32.951 33.7919C32.6709 33.5144 32.6709 33.0645 32.951 32.7871L35.5515 30.2105L21.7171 30.2104C21.3211 30.2104 21 29.8923 21 29.4999Z"/>
</mask>
<path d="M21 29.4999C21 29.1075 21.3211 28.7893 21.7171 28.7893L35.5515 28.7895L32.951 26.2129C32.6709 25.9355 32.6709 25.4856 32.951 25.2081C33.231 24.9306 33.6851 24.9306 33.9652 25.2081L37.79 28.9976C38.07 29.2751 38.07 29.7249 37.79 30.0024L33.9652 33.7919C33.6851 34.0694 33.2311 34.0694 32.951 33.7919C32.6709 33.5144 32.6709 33.0645 32.951 32.7871L35.5515 30.2105L21.7171 30.2104C21.3211 30.2104 21 29.8923 21 29.4999Z" fill="#B67435"/>
<path d="M21.7171 28.7893L21.7172 27.2893H21.7171V28.7893ZM35.5515 28.7895L35.5515 30.2895C36.1595 30.2895 36.7073 29.9225 36.9387 29.3603C37.17 28.7981 37.0391 28.1518 36.6072 27.7239L35.5515 28.7895ZM32.951 26.2129L34.0067 25.1474V25.1474L32.951 26.2129ZM32.951 25.2081L34.0067 26.2737L34.0067 26.2737L32.951 25.2081ZM33.9652 25.2081L35.0209 24.1425L35.0209 24.1425L33.9652 25.2081ZM37.79 28.9976L36.7342 30.0632L36.7342 30.0632L37.79 28.9976ZM37.79 30.0024L36.7342 28.9369L36.7342 28.9369L37.79 30.0024ZM33.9652 33.7919L35.0209 34.8575L35.0209 34.8575L33.9652 33.7919ZM32.951 33.7919L31.8953 34.8575L31.8953 34.8575L32.951 33.7919ZM32.951 32.7871L31.8953 31.7215L31.8953 31.7215L32.951 32.7871ZM35.5515 30.2105L36.6073 31.2761C37.0391 30.8482 37.17 30.2019 36.9387 29.6397C36.7073 29.0775 36.1595 28.7105 35.5515 28.7105L35.5515 30.2105ZM21.7171 30.2104L21.7172 28.7104H21.7171V30.2104ZM21.7171 27.2893C20.5058 27.2893 19.5 28.2659 19.5 29.4999H22.5C22.5 29.949 22.1364 30.2893 21.7171 30.2893V27.2893ZM35.5515 27.2895L21.7172 27.2893L21.7171 30.2893L35.5515 30.2895L35.5515 27.2895ZM31.8953 27.2785L34.4958 29.855L36.6072 27.7239L34.0067 25.1474L31.8953 27.2785ZM31.8953 24.1425C31.0228 25.0069 31.0228 26.4141 31.8953 27.2785L34.0067 25.1474C34.319 25.4568 34.319 25.9643 34.0067 26.2737L31.8953 24.1425ZM35.0209 24.1425C34.1562 23.2858 32.76 23.2858 31.8953 24.1425L34.0067 26.2737C33.7021 26.5754 33.214 26.5754 32.9094 26.2737L35.0209 24.1425ZM38.8457 27.932L35.0209 24.1425L32.9094 26.2737L36.7342 30.0632L38.8457 27.932ZM38.8457 31.068C39.7181 30.2036 39.7181 28.7964 38.8457 27.932L36.7342 30.0632C36.4219 29.7537 36.4219 29.2463 36.7342 28.9369L38.8457 31.068ZM35.0209 34.8575L38.8457 31.068L36.7342 28.9369L32.9095 32.7263L35.0209 34.8575ZM31.8953 34.8575C32.76 35.7142 34.1562 35.7142 35.0209 34.8575L32.9095 32.7263C33.214 32.4246 33.7021 32.4246 34.0067 32.7263L31.8953 34.8575ZM31.8953 31.7215C31.0228 32.5859 31.0228 33.9931 31.8953 34.8575L34.0067 32.7263C34.319 33.0357 34.319 33.5432 34.0067 33.8526L31.8953 31.7215ZM34.4958 29.145L31.8953 31.7215L34.0067 33.8526L36.6073 31.2761L34.4958 29.145ZM21.7171 31.7104L35.5515 31.7105L35.5515 28.7105L21.7172 28.7104L21.7171 31.7104ZM19.5 29.4999C19.5 30.7338 20.5058 31.7104 21.7171 31.7104V28.7104C22.1364 28.7104 22.5 29.0508 22.5 29.4999H19.5Z" fill="#B67435" mask="url(#path-2-inside-1_5_1958)"/>
</svg>
