<svg width="60" height="60" viewBox="0 0 60 60" fill="none" xmlns="http://www.w3.org/2000/svg">
<circle cx="30" cy="30" r="29.5" transform="rotate(-90 30 30)" stroke="#B67435"/>
<mask id="path-2-inside-1_5_1955" fill="white">
<path d="M39 29.4999C39 29.1075 38.6789 28.7893 38.2829 28.7893L24.4485 28.7895L27.049 26.2129C27.3291 25.9355 27.3291 25.4856 27.049 25.2081C26.769 24.9306 26.3149 24.9306 26.0348 25.2081L22.21 28.9976C21.93 29.2751 21.93 29.7249 22.21 30.0024L26.0348 33.7919C26.3149 34.0694 26.7689 34.0694 27.049 33.7919C27.3291 33.5144 27.3291 33.0645 27.049 32.7871L24.4485 30.2105L38.2829 30.2104C38.6789 30.2104 39 29.8923 39 29.4999Z"/>
</mask>
<path d="M39 29.4999C39 29.1075 38.6789 28.7893 38.2829 28.7893L24.4485 28.7895L27.049 26.2129C27.3291 25.9355 27.3291 25.4856 27.049 25.2081C26.769 24.9306 26.3149 24.9306 26.0348 25.2081L22.21 28.9976C21.93 29.2751 21.93 29.7249 22.21 30.0024L26.0348 33.7919C26.3149 34.0694 26.7689 34.0694 27.049 33.7919C27.3291 33.5144 27.3291 33.0645 27.049 32.7871L24.4485 30.2105L38.2829 30.2104C38.6789 30.2104 39 29.8923 39 29.4999Z" fill="#B67435"/>
<path d="M38.2829 28.7893L38.2828 27.2893L38.2829 27.2893L38.2829 28.7893ZM24.4485 28.7895L24.4485 30.2895C23.8405 30.2895 23.2927 29.9225 23.0613 29.3603C22.83 28.7981 22.9609 28.1518 23.3928 27.7239L24.4485 28.7895ZM27.049 26.2129L25.9933 25.1474L25.9933 25.1474L27.049 26.2129ZM27.049 25.2081L25.9933 26.2737L25.9933 26.2737L27.049 25.2081ZM26.0348 25.2081L24.9791 24.1425L24.9791 24.1425L26.0348 25.2081ZM22.21 28.9976L23.2658 30.0632L23.2658 30.0632L22.21 28.9976ZM22.21 30.0024L23.2658 28.9369L23.2658 28.9369L22.21 30.0024ZM26.0348 33.7919L24.9791 34.8575L24.9791 34.8575L26.0348 33.7919ZM27.049 33.7919L28.1047 34.8575L28.1047 34.8575L27.049 33.7919ZM27.049 32.7871L28.1047 31.7215L28.1047 31.7215L27.049 32.7871ZM24.4485 30.2105L23.3927 31.2761C22.9609 30.8482 22.83 30.2019 23.0613 29.6397C23.2927 29.0775 23.8405 28.7105 24.4485 28.7105L24.4485 30.2105ZM38.2829 30.2104L38.2828 28.7104L38.2829 28.7104L38.2829 30.2104ZM38.2829 27.2893C39.4942 27.2893 40.5 28.2659 40.5 29.4999L37.5 29.4999C37.5 29.949 37.8636 30.2893 38.2829 30.2893L38.2829 27.2893ZM24.4485 27.2895L38.2828 27.2893L38.2829 30.2893L24.4485 30.2895L24.4485 27.2895ZM28.1047 27.2785L25.5042 29.855L23.3928 27.7239L25.9933 25.1474L28.1047 27.2785ZM28.1047 24.1425C28.9772 25.0069 28.9772 26.4141 28.1047 27.2785L25.9933 25.1474C25.681 25.4568 25.681 25.9643 25.9933 26.2737L28.1047 24.1425ZM24.9791 24.1425C25.8438 23.2858 27.24 23.2858 28.1047 24.1425L25.9933 26.2737C26.2979 26.5754 26.786 26.5754 27.0906 26.2737L24.9791 24.1425ZM21.1543 27.932L24.9791 24.1425L27.0906 26.2737L23.2658 30.0632L21.1543 27.932ZM21.1543 31.068C20.2819 30.2036 20.2819 28.7964 21.1543 27.932L23.2658 30.0632C23.5781 29.7537 23.5781 29.2463 23.2658 28.9369L21.1543 31.068ZM24.9791 34.8575L21.1543 31.068L23.2658 28.9369L27.0905 32.7263L24.9791 34.8575ZM28.1047 34.8575C27.24 35.7142 25.8438 35.7142 24.9791 34.8575L27.0905 32.7263C26.786 32.4246 26.2979 32.4246 25.9933 32.7263L28.1047 34.8575ZM28.1047 31.7215C28.9772 32.5859 28.9772 33.9931 28.1047 34.8575L25.9933 32.7263C25.681 33.0357 25.681 33.5432 25.9933 33.8526L28.1047 31.7215ZM25.5042 29.145L28.1047 31.7215L25.9933 33.8526L23.3927 31.2761L25.5042 29.145ZM38.2829 31.7104L24.4485 31.7105L24.4485 28.7105L38.2828 28.7104L38.2829 31.7104ZM40.5 29.4999C40.5 30.7338 39.4942 31.7104 38.2829 31.7104L38.2829 28.7104C37.8636 28.7104 37.5 29.0508 37.5 29.4999L40.5 29.4999Z" fill="#B67435" mask="url(#path-2-inside-1_5_1955)"/>
</svg>
