<svg width="17" height="15" viewBox="0 0 17 15" fill="none" xmlns="http://www.w3.org/2000/svg">
<g clip-path="url(#clip0_5_2108)">
<path d="M17 3.06262H0V15.0019H17V3.06262Z" fill="#333333"/>
<path d="M12.9329 3.27514H12.0704V0.859583H5.0417V3.27514H4.18115V0.428842L4.61237 0H12.5016L12.9329 0.428842V3.27514Z" fill="#333333"/>
<path d="M5.05684 8.67742L5.05494 8.67362C5.05114 8.66983 5.04925 8.66793 5.04735 8.66413C5.04545 8.65844 5.04355 8.65654 5.04355 8.65275L5.04165 8.65085C5.03785 8.64136 5.03595 8.63188 5.03405 8.62429L5.03025 8.6148L5.03215 8.6129C5.03215 8.60152 5.03785 8.59392 5.04545 8.58823L5.04355 8.58633C5.04165 8.58444 5.03975 8.58254 5.03975 8.58254L5.03405 8.57874C5.02645 8.56167 5.02645 8.54079 5.02645 8.52182L5.00175 8.51423C4.99985 8.51802 4.99795 8.51992 4.99606 8.52372C4.99606 8.52561 4.99416 8.52751 4.99416 8.53131C4.99416 8.5332 4.99226 8.5332 4.99226 8.5351C4.98656 8.55408 4.98276 8.57115 4.97706 8.58633C4.97326 8.59772 4.96946 8.60911 4.96566 8.62239C4.96376 8.63188 4.95996 8.64326 4.95806 8.65275C4.95616 8.66224 4.95236 8.67172 4.95046 8.68311L4.94666 8.6926C4.94666 8.69449 4.94476 8.69639 4.94476 8.69829C4.94096 8.71157 4.93907 8.72485 4.93527 8.73624C4.93337 8.74193 4.93147 8.74573 4.92957 8.75142C4.92767 8.75522 4.92767 8.75901 4.92577 8.76281C4.92387 8.7704 4.92197 8.77609 4.92007 8.78178C4.91817 8.78747 4.91627 8.79127 4.91627 8.79317C4.91437 8.79886 4.91057 8.80076 4.90867 8.80265C4.90677 8.80645 4.90677 8.81214 4.90487 8.81594C4.90107 8.82922 4.89727 8.8444 4.88398 8.85578C4.88208 8.86717 4.87828 8.88425 4.86118 8.89184L4.85358 8.89563L4.84788 8.88804C4.82129 8.85009 4.79089 8.80265 4.79089 8.74003C4.79089 8.71537 4.80039 8.67172 4.80989 8.65275L4.81179 8.64895C4.81369 8.64895 4.81369 8.64706 4.81559 8.64516C4.81749 8.64516 4.81939 8.64326 4.81939 8.64326C4.81939 8.63757 4.82129 8.63377 4.82319 8.62808C4.82509 8.62239 4.82509 8.6167 4.82889 8.6129L4.83458 8.60721C4.84028 8.59772 4.84788 8.59203 4.85548 8.58444C4.86118 8.57874 4.87068 8.57305 4.87448 8.56546C4.87258 8.56546 4.87068 8.56356 4.86878 8.56167C4.85548 8.55218 4.84218 8.537 4.84028 8.51043C4.83838 8.49905 4.84408 8.48197 4.85168 8.463C4.85168 8.4592 4.85358 8.4573 4.85738 8.45351C4.85928 8.44971 4.85928 8.44402 4.85928 8.44022C4.86118 8.43453 4.86308 8.42884 4.86688 8.42315C4.86878 8.42125 4.87068 8.41935 4.87448 8.41745V8.41366L4.87638 8.40986C4.87828 8.40607 4.88018 8.40417 4.88398 8.40038C4.88398 8.39658 4.88398 8.39468 4.88587 8.39279C4.88587 8.39089 4.88777 8.38899 4.88967 8.3852L4.86878 8.34155C4.86688 8.34345 4.86118 8.34535 4.85928 8.34725L4.85548 8.35104C4.85738 8.35104 4.85548 8.35863 4.85548 8.35863C4.85358 8.36812 4.84788 8.37381 4.84408 8.37571C4.84408 8.3833 4.84028 8.38709 4.83648 8.39279C4.83648 8.39658 4.83458 8.40417 4.83268 8.40986L4.82699 8.42125C4.82699 8.42315 4.82509 8.42694 4.82319 8.43074C4.82129 8.43453 4.81939 8.44023 4.81749 8.44592C4.81369 8.45541 4.80989 8.46869 4.80609 8.47248C4.80229 8.47818 4.79849 8.48197 4.79469 8.48197C4.79469 8.48577 4.79279 8.48956 4.79089 8.49336C4.7624 8.52751 4.732 8.52751 4.70161 8.50284L4.69781 8.49905L4.69591 8.49525C4.69591 8.48197 4.70161 8.47438 4.70921 8.47059C4.71111 8.47059 4.71111 8.46679 4.71301 8.46489C4.71491 8.4592 4.71681 8.45351 4.7206 8.44782L4.7225 8.43833C4.7282 8.42125 4.7282 8.40417 4.7301 8.3833C4.7301 8.37761 4.732 8.37002 4.732 8.36243C4.7282 8.36432 4.7225 8.36243 4.71681 8.36053V8.36432C4.71491 8.36812 4.71301 8.37191 4.71301 8.37381C4.71301 8.37571 4.71111 8.37761 4.70921 8.3795V8.3833C4.70921 8.38709 4.70731 8.39279 4.69971 8.39658C4.69971 8.40038 4.69971 8.40227 4.69781 8.40607C4.69781 8.41745 4.69401 8.42504 4.68831 8.43643C4.68641 8.44022 4.68451 8.44402 4.68071 8.44971C4.67691 8.45541 4.66931 8.46869 4.66931 8.46869C4.66931 8.47628 4.66552 8.48007 4.65982 8.48197V8.48387C4.65602 8.49146 4.65412 8.49525 4.65032 8.49905C4.65032 8.50095 4.65032 8.50474 4.64842 8.50664L4.64652 8.50854C4.64462 8.51233 4.64082 8.51423 4.63702 8.51802L4.63132 8.52182C4.62942 8.52561 4.62562 8.52941 4.62182 8.5332C4.61233 8.54838 4.59713 8.56546 4.57433 8.56736H4.56103V8.55218C4.55913 8.54269 4.56103 8.5332 4.56103 8.52372C4.55154 8.53131 4.53824 8.5389 4.52304 8.54269C4.51734 8.54838 4.50784 8.54838 4.50025 8.54459C4.48885 8.55408 4.46985 8.57115 4.44136 8.59013C4.42046 8.60341 4.39386 8.62239 4.38627 8.62808C4.38437 8.63188 4.38247 8.63377 4.38057 8.63567C4.38057 8.63757 4.38057 8.64326 4.37867 8.64706C4.37487 8.65465 4.36917 8.65654 4.36537 8.65654C4.36347 8.66034 4.36347 8.66413 4.36157 8.66793C4.35967 8.67362 4.35777 8.67931 4.35397 8.6869V8.6907L4.34637 8.69639C4.34447 8.70019 4.34257 8.70398 4.33877 8.70778C4.33877 8.70778 4.33498 8.71157 4.33308 8.71347C4.33118 8.71537 4.32928 8.71537 4.32928 8.71916C4.32928 8.72106 4.32928 8.72485 4.32738 8.72865C4.32548 8.73434 4.31788 8.73624 4.31408 8.73624C4.31408 8.74004 4.31218 8.74383 4.30648 8.74763C4.29888 8.76091 4.28938 8.77799 4.27229 8.78368L4.26279 8.78747L4.25709 8.78178C4.25139 8.77419 4.25139 8.7647 4.25139 8.75711V8.75332C4.24759 8.75332 4.24379 8.75711 4.23809 8.76091C4.23429 8.7647 4.2248 8.77419 4.2172 8.77988C4.2172 8.78178 4.2134 8.78747 4.2115 8.79127C4.2039 8.80265 4.1925 8.81594 4.1754 8.81594C4.17161 8.81594 4.16591 8.81404 4.16021 8.81024L4.15451 8.80645C4.14501 8.81404 4.13361 8.81594 4.12411 8.81594L4.12221 8.81783C4.12221 8.81783 4.12221 8.82163 4.12031 8.82353C4.11841 8.82732 4.11462 8.82922 4.11272 8.83301C4.11082 8.83871 4.10702 8.8425 4.10322 8.8444C4.10132 8.84819 4.10132 8.85009 4.09942 8.85199C4.09752 8.85389 4.09752 8.85768 4.09562 8.85958C4.09372 8.86337 4.09182 8.86717 4.09182 8.86717C4.08992 8.86717 4.08802 8.87097 4.08612 8.87097C4.08612 8.88425 4.07092 8.89374 4.06143 8.89943C4.05953 8.90133 4.05573 8.90512 4.05573 8.90512C4.05193 8.90892 4.04813 8.91461 4.04623 8.9184C4.04243 8.9241 4.03863 8.92979 4.03293 8.93548C4.02723 8.93928 4.02153 8.93928 4.01773 8.93928C4.01583 8.94307 4.01203 8.94687 4.01013 8.95066C4.00634 8.95635 4.00254 8.96205 3.99684 8.96394C3.99494 8.96774 3.98924 8.96774 3.98544 8.96774C3.98354 8.96964 3.98164 8.97153 3.97974 8.97343C3.97784 8.97533 3.97404 8.97912 3.97024 8.98102C3.97024 8.98292 3.96644 8.9981 3.96454 9.00759C3.96074 9.03605 3.95694 9.04364 3.95125 9.04933C3.94745 9.05123 3.94555 9.05313 3.94175 9.05503C3.93605 9.06072 3.93225 9.06262 3.92845 9.06451H3.92275C3.92465 9.06451 3.92275 9.06641 3.92275 9.06831C3.91895 9.07021 3.91705 9.074 3.90945 9.0778L3.90565 9.08159L3.89236 9.08918C3.88476 9.09108 3.87906 9.09487 3.87146 9.09867L3.86766 9.10246C3.86576 9.10626 3.86196 9.11005 3.85816 9.11195L3.85056 9.11764L3.84676 9.11954C3.84486 9.12144 3.84297 9.12144 3.84297 9.12334C3.83917 9.12713 3.83537 9.12903 3.82967 9.13093C3.82777 9.13093 3.82777 9.13282 3.82587 9.13472C3.82587 9.13472 3.82397 9.13852 3.82207 9.14041L3.81827 9.14231L3.81067 9.14421H3.80687C3.80497 9.14611 3.80307 9.148 3.79927 9.1499C3.79737 9.1518 3.79547 9.1518 3.79357 9.1537C3.78977 9.15749 3.78598 9.16129 3.78028 9.16508L3.77648 9.16888C3.75748 9.17836 3.74798 9.16318 3.74038 9.1499L3.73468 9.1518L3.73279 9.1537L3.72899 9.15749H3.72519C3.72519 9.15939 3.72329 9.16129 3.72139 9.16129C3.71949 9.16318 3.71759 9.16508 3.71569 9.16698C3.71189 9.17836 3.70239 9.18596 3.69289 9.18975C3.69289 9.19355 3.69099 9.19734 3.68909 9.19924C3.68719 9.20683 3.68339 9.20873 3.68149 9.20873C3.68149 9.21252 3.67959 9.21632 3.6758 9.22011C3.672 9.22391 3.6701 9.2258 3.6682 9.2296C3.6663 9.2296 3.6644 9.2315 3.6644 9.2315C3.6644 9.23719 3.6606 9.24288 3.6568 9.24478C3.6473 9.26565 3.6416 9.28463 3.6378 9.29411C3.6378 9.29791 3.6359 9.3074 3.6321 9.31499C3.6302 9.32068 3.6283 9.32637 3.6283 9.33207C3.62261 9.37761 3.6283 9.42694 3.634 9.4573C3.6378 9.46869 3.6378 9.47818 3.6359 9.48766V9.49715C3.6454 9.50474 3.6473 9.5332 3.6473 9.5332V9.54079L3.6435 9.54459C3.6435 9.54649 3.6435 9.54838 3.6416 9.55218C3.61691 9.64895 3.61121 9.78558 3.6302 9.88614C3.6321 9.89753 3.6359 9.90892 3.6378 9.9203C3.6416 9.93548 3.6454 9.94687 3.6473 9.95825L3.6492 9.96015L3.6511 9.97153C3.653 9.97533 3.6549 9.98102 3.6568 9.98861C3.6568 9.9943 3.6587 9.9981 3.6606 10.0038L3.6625 10.0057L3.6663 10.0076V10.0114H3.6682L3.6701 10.019C3.672 10.0247 3.672 10.0304 3.672 10.0342V10.0398C3.672 10.0417 3.6739 10.0417 3.6758 10.0436C3.6758 10.0455 3.69099 10.0683 3.69669 10.0835H3.70049L3.70239 10.0911C3.70429 10.0949 3.70429 10.0987 3.70239 10.1006C3.70429 10.1025 3.70809 10.1063 3.70999 10.1101C3.71189 10.1138 3.71189 10.1195 3.71379 10.1233V10.1271C3.71379 10.1271 3.71379 10.1271 3.71569 10.129H3.71759L3.72519 10.1404C3.72899 10.1518 3.73468 10.1594 3.74038 10.1632C3.74228 10.1651 3.74418 10.1708 3.74608 10.1765V10.1803C3.74988 10.186 3.75178 10.1897 3.75368 10.1916C3.76318 10.1992 3.77078 10.2106 3.77268 10.2182C3.77268 10.2182 3.77458 10.2201 3.77648 10.222C3.77838 10.222 3.77838 10.222 3.78028 10.2239L3.78218 10.2277L3.78408 10.2315C3.78598 10.2353 3.78598 10.2391 3.78408 10.241H3.78598C3.78977 10.2429 3.79737 10.2486 3.79927 10.2581C3.79927 10.26 3.80497 10.2638 3.80877 10.2675C3.81257 10.2694 3.81637 10.2732 3.81827 10.2751C3.82397 10.2808 3.82587 10.2865 3.82587 10.2903C3.82777 10.2922 3.82777 10.2941 3.82967 10.296C3.82967 10.2979 3.83537 10.2998 3.83917 10.3036C3.84676 10.3093 3.85246 10.3131 3.85816 10.3207L3.86196 10.3245L3.85816 10.3302C3.86196 10.3302 3.86196 10.3321 3.86386 10.334L3.86956 10.3397C3.88286 10.3567 3.89995 10.3795 3.90945 10.3871L3.91705 10.3909C3.92085 10.3928 3.92655 10.3947 3.93035 10.3966C3.93795 10.4042 3.94175 10.4118 3.94745 10.4175C3.94745 10.4194 3.94935 10.4212 3.95125 10.4231H3.95504L3.95884 10.425C3.96644 10.425 3.96834 10.4326 3.97024 10.4364V10.4402C3.97404 10.444 3.97784 10.4459 3.97974 10.4497H3.98544H3.99114C3.99304 10.4497 3.99684 10.4554 3.99874 10.4573C3.99874 10.4592 4.00064 10.4611 4.00254 10.4611C4.01013 10.4649 4.01963 10.4763 4.02723 10.4858C4.03103 10.4877 4.03483 10.4934 4.03673 10.4934C4.04053 10.4972 4.04623 10.499 4.05193 10.5028L4.06712 10.5104L4.07472 10.5142V10.5199H4.08232L4.08422 10.5256C4.08612 10.5256 4.08802 10.5294 4.08992 10.5313C4.09182 10.5332 4.09562 10.5351 4.09562 10.537C4.10322 10.5427 4.10892 10.5465 4.11272 10.5503L4.12411 10.5598C4.13171 10.5636 4.13931 10.5674 4.14691 10.5731C4.16211 10.5806 4.1754 10.5882 4.1849 10.5977C4.1849 10.5996 4.1868 10.5996 4.1887 10.5996C4.1925 10.5996 4.1963 10.6015 4.2001 10.6053C4.2039 10.6053 4.2039 10.6091 4.2058 10.6091H4.2096L4.2172 10.611C4.2172 10.6129 4.2191 10.6167 4.221 10.6186C4.221 10.6205 4.2229 10.6205 4.2248 10.6205L4.23429 10.6262C4.23999 10.63 4.24379 10.6319 4.24949 10.6395C4.25329 10.6395 4.26089 10.6395 4.26279 10.6433C4.27989 10.6527 4.29698 10.6603 4.31598 10.6698C4.32738 10.6736 4.33877 10.6793 4.35207 10.6888C4.35397 10.6869 4.35777 10.6869 4.36157 10.6869H4.36537C4.37487 10.6869 4.38437 10.6869 4.39197 10.6831C4.40146 10.6812 4.41096 10.6812 4.42046 10.6793C4.42236 10.6755 4.42616 10.6736 4.42996 10.6736L4.43946 10.6717C4.44895 10.666 4.45845 10.6641 4.46225 10.6622L4.47365 10.6603C4.47745 10.6584 4.47935 10.6584 4.48125 10.6584C4.48695 10.6565 4.49075 10.6546 4.49645 10.6546H4.50214C4.50594 10.6546 4.50974 10.6527 4.51544 10.6509C4.51544 10.649 4.51924 10.6471 4.52304 10.6452C4.52494 10.6452 4.52874 10.6433 4.53064 10.6414C4.53444 10.6395 4.53824 10.6376 4.54204 10.6357L4.55344 10.6319C4.55534 10.6319 4.55913 10.6319 4.56293 10.63C4.56673 10.6281 4.57053 10.6262 4.57243 10.6224C4.57813 10.6205 4.58193 10.6167 4.58573 10.6167L4.59523 10.611C4.59903 10.611 4.60283 10.611 4.60663 10.611L4.61043 10.6091H4.61422C4.61422 10.6091 4.61612 10.6091 4.61612 10.6072C4.61802 10.6053 4.61802 10.6034 4.61992 10.6034L4.62942 10.5977C4.63132 10.5901 4.63132 10.5882 4.63322 10.5863C4.64082 10.5825 4.64652 10.5806 4.65222 10.5787C4.65412 10.5749 4.65602 10.5712 4.65982 10.5693C4.66362 10.5655 4.66931 10.5655 4.67311 10.5655C4.67501 10.5636 4.67691 10.5617 4.67881 10.5598C4.68261 10.5541 4.68641 10.5465 4.69591 10.5446C4.69781 10.5427 4.69781 10.5427 4.69971 10.5408C4.71871 10.5256 4.7491 10.4972 4.7643 10.4782C4.77 10.4706 4.7757 10.4668 4.77949 10.4611C4.77949 10.4573 4.77949 10.4535 4.78519 10.4497C4.78899 10.4497 4.79279 10.4459 4.79659 10.4459C4.79659 10.444 4.79849 10.444 4.80039 10.444C4.79849 10.444 4.80039 10.4421 4.80039 10.4402C4.80039 10.4383 4.80229 10.4364 4.80229 10.4326V10.4288L4.80989 10.4231C4.80989 10.4175 4.81369 10.4156 4.81749 10.4118C4.81939 10.408 4.82129 10.4061 4.82129 10.4042C4.82509 10.4004 4.82699 10.3985 4.82699 10.3966C4.82889 10.3947 4.83078 10.3928 4.83268 10.389C4.83838 10.3795 4.84978 10.3624 4.84978 10.3586C4.85168 10.3529 4.85358 10.3472 4.85738 10.3453C4.85738 10.3435 4.85928 10.3378 4.85928 10.3321V10.3283L4.86308 10.3264C4.86878 10.3245 4.87068 10.3207 4.87258 10.3207C4.87258 10.3188 4.87448 10.3169 4.87448 10.315C4.87448 10.3112 4.87448 10.3074 4.87638 10.3017L4.87828 10.2979L4.88208 10.296C4.88777 10.2903 4.89537 10.2713 4.89537 10.2675C4.89727 10.26 4.89917 10.2562 4.90107 10.2543C4.90107 10.2505 4.90297 10.241 4.90867 10.2372C4.91057 10.2334 4.91057 10.2296 4.91247 10.2239C4.91437 10.2182 4.91627 10.2125 4.91817 10.2049C4.93907 10.1423 4.95236 10.0702 4.96186 9.98671C4.96376 9.97533 4.96566 9.96205 4.96756 9.94876C4.96946 9.93548 4.97326 9.9203 4.97326 9.90512C4.97896 9.8406 4.97706 9.76281 4.97326 9.70778C4.97326 9.70019 4.97516 9.69449 4.97516 9.6888V9.66413C4.97326 9.63188 4.98086 9.60531 4.99036 9.57685C4.99795 9.54838 5.00555 9.52561 5.00365 9.50095V9.46489C5.00555 9.44781 5.00555 9.43074 5.00175 9.42315C4.99036 9.39848 4.98656 9.37381 4.98276 9.34535C4.97516 9.28652 4.99226 9.23719 5.00935 9.18975C5.02455 9.1499 5.03595 9.11005 5.03405 9.06641C5.03215 9.03795 5.03975 9 5.04545 8.96394C5.05304 8.91271 5.06254 8.85958 5.05304 8.82732L5.04925 8.81594L5.06254 8.81214C5.06254 8.80835 5.05684 8.79317 5.05304 8.78368C5.04735 8.7647 5.04165 8.75142 5.05114 8.74003L5.05494 8.73624H5.06064C5.06254 8.73244 5.06254 8.73055 5.06254 8.73055C5.06444 8.72865 5.06444 8.72485 5.06824 8.72106C5.06824 8.71726 5.06634 8.71157 5.06444 8.70019C5.06254 8.6926 5.05874 8.68501 5.05684 8.67742Z" fill="white"/>
<path d="M12.7162 7.03226L12.7124 7.02846C12.7105 7.02846 12.7105 7.02656 12.7105 7.02467L12.7048 7.02277L12.701 7.01897C12.6953 7.01518 12.6934 7.01328 12.6896 7.00949C12.6877 7.00949 12.6877 7.00949 12.6858 7.00949C12.6839 7.00949 12.6801 7.00759 12.6801 7.00759L12.6763 7.00569C12.6725 7.0019 12.6725 7.0019 12.6706 7C12.6668 7 12.6649 7 12.663 7C12.6573 6.9962 12.6554 6.99241 12.6535 6.99051C12.6459 6.99051 12.6383 6.98482 12.6364 6.98292C12.6326 6.98102 12.6269 6.97913 12.625 6.97533C12.6212 6.97533 12.6155 6.97343 12.6098 6.97154C12.6022 6.96964 12.5946 6.96395 12.5851 6.96015C12.5794 6.95635 12.5737 6.95446 12.5661 6.95066C12.5604 6.94877 12.5547 6.94687 12.5471 6.94687C12.5357 6.94307 12.5224 6.93928 12.5167 6.93358C12.5148 6.93358 12.5148 6.93548 12.5129 6.93548H12.5091C12.5034 6.93548 12.4977 6.93358 12.4958 6.92789C12.4788 6.9241 12.4579 6.9203 12.4389 6.91461C12.4199 6.91081 12.4028 6.90702 12.3876 6.90322L12.3762 6.89943C12.3629 6.89753 12.3553 6.89374 12.3515 6.89184H12.3439C12.3401 6.89184 12.3382 6.89184 12.3382 6.89184C12.3021 6.88425 12.266 6.87666 12.2299 6.86907C12.19 6.86148 12.1539 6.85389 12.1159 6.8463C12.1102 6.8463 12.1045 6.8444 12.1007 6.8444C12.095 6.8444 12.0912 6.8444 12.0855 6.8444L12.0817 6.84061L12.076 6.83681C12.0703 6.83491 12.0665 6.83491 12.0608 6.83491C12.0532 6.83491 12.0456 6.83491 12.038 6.83302C12.0247 6.83112 12.0095 6.82732 11.9962 6.82353C11.9829 6.81973 11.9715 6.81594 11.9563 6.81404C11.9355 6.81025 11.9165 6.80645 11.8975 6.80265C11.8614 6.79506 11.8253 6.78937 11.7892 6.77988L11.7778 6.77799L11.774 6.77609C11.7683 6.77419 11.7645 6.77419 11.7626 6.77229C11.7607 6.77229 11.7607 6.77229 11.7588 6.77229C11.755 6.77229 11.7493 6.7704 11.7455 6.7666C11.7436 6.7666 11.7417 6.7647 11.7398 6.7647C11.736 6.7647 11.7322 6.7647 11.7246 6.7647H11.7189L11.717 6.76091C11.7113 6.75901 11.6999 6.75522 11.6885 6.75332C11.6695 6.74763 11.6524 6.74193 11.6467 6.73624H11.641C11.6391 6.73624 11.6372 6.73814 11.6372 6.73814C11.6315 6.73624 11.6258 6.73434 11.622 6.73055L11.6106 6.72675C11.5878 6.71916 11.5612 6.71157 11.5441 6.70019C11.5384 6.69829 11.5308 6.69639 11.5232 6.6926C11.5175 6.6907 11.5118 6.6888 11.5061 6.68501C11.5004 6.68121 11.4966 6.67932 11.489 6.67932C11.4833 6.67932 11.4776 6.67552 11.4757 6.66983C11.4643 6.66603 11.4548 6.66224 11.4453 6.65844C11.432 6.65465 11.4149 6.64895 11.4016 6.64136L11.396 6.63757C11.3903 6.63757 11.3865 6.63377 11.3827 6.62998C11.377 6.62808 11.3694 6.62618 11.3656 6.62429C11.3618 6.62239 11.3599 6.62239 11.358 6.62239C11.3504 6.62049 11.3466 6.61859 11.3447 6.6148C11.3352 6.6129 11.3314 6.611 11.3276 6.611C11.3238 6.60911 11.32 6.60721 11.3181 6.60721C11.3105 6.60152 11.301 6.59772 11.2934 6.59582C11.2877 6.59393 11.282 6.59203 11.2801 6.59013C11.2763 6.58634 11.2611 6.58064 11.2554 6.57875C11.2497 6.57685 11.2478 6.57685 11.2459 6.57685H11.2421C11.2364 6.57685 11.2307 6.57305 11.2288 6.56926C11.2269 6.56926 11.225 6.56926 11.2231 6.56736C11.2174 6.56736 11.2117 6.56736 11.2079 6.56357C11.2003 6.56357 11.1927 6.55977 11.1851 6.55598C11.1794 6.55408 11.1737 6.55028 11.1661 6.54839C11.1186 6.5351 11.016 6.50854 10.9115 6.50854C10.8868 6.50854 10.8659 6.51043 10.8451 6.51233C10.8147 6.51613 10.7843 6.52182 10.7615 6.52561C10.7558 6.52751 10.752 6.52941 10.7463 6.53131C10.7425 6.5332 10.7368 6.5351 10.7311 6.5351C10.7292 6.537 10.7254 6.5408 10.7235 6.5408C10.7159 6.54269 10.7083 6.54269 10.7026 6.54269L10.7007 6.54459C10.6722 6.56357 10.6456 6.57875 10.619 6.59393C10.5981 6.60721 10.5772 6.61859 10.5563 6.63188L10.6646 6.62998C10.7064 6.62998 10.7292 6.66034 10.7292 6.6907C10.7292 6.72296 10.7064 6.75522 10.6646 6.75522H10.562C10.5563 6.7666 10.5487 6.77609 10.5316 6.78368C10.5278 6.78368 10.5259 6.78558 10.5221 6.78937C10.5202 6.78937 10.5183 6.79127 10.5183 6.79127C10.5202 6.79696 10.5202 6.80455 10.5202 6.81024V6.82542C10.5373 6.84061 10.5563 6.85579 10.5696 6.86527C10.5905 6.88045 10.6 6.90133 10.5981 6.92599L10.7254 6.98102C10.7501 6.99051 10.7615 7.01138 10.7596 7.03415C10.7558 7.05882 10.7387 7.07969 10.7159 7.08918V7.11195L10.7178 7.11575C10.7216 7.12334 10.7254 7.13093 10.7292 7.13662C10.7387 7.14801 10.7501 7.15939 10.7596 7.16508C10.7615 7.16698 10.7634 7.16888 10.7634 7.16888C10.8014 7.18216 10.8375 7.19734 10.8773 7.21062L10.8697 7.23529C10.8299 7.22201 10.8014 7.21442 10.7805 7.21062V7.21821C10.809 7.24288 10.8659 7.27704 10.9229 7.31499C11.0882 7.42125 11.1889 7.48766 11.1775 7.52751C11.1737 7.54839 11.1452 7.55028 11.1357 7.55028H11.13C11.0977 7.55028 11.0331 7.5351 10.9628 7.51992C10.9552 7.53321 10.94 7.54269 10.9248 7.54459V7.55408C10.9324 7.56546 10.94 7.57875 10.9495 7.59013C10.9533 7.59203 10.9552 7.59393 10.9571 7.59582C10.9647 7.59013 10.9723 7.58634 10.9818 7.58634C11.0065 7.58634 11.0274 7.60531 11.0559 7.62998L11.0616 7.63567C11.0711 7.64326 11.0768 7.64706 11.0825 7.65085L11.1547 7.70778L11.073 7.67552C11.0673 7.67362 11.0635 7.67173 11.0597 7.67173C11.0426 7.67173 11.0369 7.69829 11.0369 7.72106C11.0369 7.73245 11.0331 7.74573 11.0274 7.75711C11.0597 7.82353 11.0806 7.87666 11.1015 7.92599C11.1034 7.92789 11.1072 7.92789 11.1091 7.92979C11.1148 7.93169 11.1205 7.93358 11.1224 7.93548C11.1585 7.95256 11.1718 7.97913 11.1661 8.01138C11.1699 8.01328 11.1718 8.01328 11.1737 8.01328L11.1813 8.01708C11.187 8.01897 11.1927 8.02087 11.1946 8.02087C11.2022 8.02087 11.2041 8.02277 11.2079 8.02656C11.2098 8.02656 11.2117 8.02656 11.2136 8.02656C11.2231 8.02656 11.2364 8.03036 11.244 8.03985L11.2459 8.04364C11.2459 8.05313 11.2516 8.0778 11.2592 8.0778H11.2649C11.2896 8.0778 11.2934 8.10816 11.2953 8.14421C11.2953 8.1556 11.2934 8.16319 11.2934 8.17078C11.301 8.18785 11.3086 8.20114 11.3181 8.21442C11.3257 8.2315 11.3352 8.24668 11.3447 8.26376C11.3447 8.26755 11.3466 8.26945 11.3485 8.27324C11.3504 8.27324 11.3523 8.27514 11.3542 8.27704C11.3561 8.27704 11.358 8.27894 11.3599 8.28083C11.3732 8.29032 11.3884 8.30171 11.4054 8.31689L11.4016 8.32258C11.4396 8.35484 11.4719 8.37761 11.5061 8.39468C11.5175 8.40038 11.527 8.40987 11.5327 8.42505C11.5384 8.43074 11.5441 8.43833 11.5479 8.44782C11.5745 8.4592 11.603 8.47438 11.6315 8.48766C11.6391 8.48577 11.6486 8.48387 11.6562 8.48387C11.66 8.48387 11.6619 8.48387 11.6657 8.48387C11.6733 8.47818 11.6809 8.47059 11.6904 8.463C11.6942 8.4611 11.6942 8.4592 11.6961 8.4573C11.698 8.45541 11.7018 8.45161 11.7056 8.44971L11.7094 8.44592H11.7132C11.7265 8.44592 11.7284 8.4573 11.7303 8.47818V8.48197C11.7341 8.48197 11.7341 8.48007 11.7341 8.48007L11.7398 8.47628C11.7436 8.47438 11.7493 8.47438 11.7531 8.47438C11.7778 8.47438 11.7968 8.49905 11.812 8.51613C11.8177 8.51992 11.8234 8.52561 11.8253 8.52751C11.8367 8.5351 11.8367 8.54459 11.8348 8.55218C11.8329 8.56167 11.8253 8.57305 11.8196 8.58064C11.8234 8.58823 11.8291 8.60152 11.8329 8.611C11.8424 8.60911 11.8519 8.60911 11.8614 8.60911C11.8652 8.60911 11.869 8.60911 11.8709 8.611C11.8709 8.611 11.8709 8.60911 11.8728 8.60911C11.8747 8.60911 11.8785 8.60911 11.8823 8.60911C11.8956 8.611 11.907 8.62618 11.9279 8.65275C11.9393 8.66983 11.9639 8.69829 11.9715 8.70019H11.9772L11.9848 8.70968C11.9867 8.70778 11.9905 8.70778 11.9924 8.70778C12.0038 8.70778 12.0133 8.71537 12.0209 8.72486L12.0285 8.73245L12.0323 8.73055C12.038 8.72675 12.0418 8.72486 12.0456 8.72296L12.0475 8.71916C12.0532 8.71727 12.0589 8.71537 12.0627 8.71537C12.0646 8.71347 12.0646 8.71347 12.0665 8.71347C12.0684 8.71157 12.0703 8.70968 12.0722 8.70778L12.0741 8.70588L12.0779 8.70398C12.0836 8.70209 12.0893 8.70019 12.095 8.70019C12.1159 8.70019 12.1311 8.71916 12.1406 8.73624C12.152 8.75142 12.1634 8.7666 12.1786 8.76281C12.1843 8.75901 12.19 8.75711 12.1976 8.75522L12.209 8.75142C12.2223 8.74573 12.2394 8.74952 12.2508 8.75142C12.2622 8.75332 12.2717 8.75522 12.2774 8.75332C12.2831 8.75142 12.285 8.75142 12.2907 8.74952C12.2983 8.74573 12.3059 8.74383 12.3097 8.74193C12.342 8.73245 12.3762 8.72106 12.4047 8.71157C12.4085 8.70968 12.4104 8.70778 12.4142 8.70778C12.4199 8.70398 12.4256 8.70209 12.4313 8.70209C12.4351 8.70209 12.4389 8.70398 12.4427 8.70588L12.4465 8.70778C12.456 8.71916 12.456 8.73624 12.456 8.75142C12.4579 8.77609 12.4598 8.7704 12.4693 8.7704C12.475 8.7685 12.475 8.7685 12.4769 8.7685C12.4769 8.7647 12.4769 8.76281 12.4807 8.76091C12.4826 8.75901 12.4864 8.75522 12.4958 8.74004L12.4996 8.73434C12.4996 8.73434 12.5015 8.73245 12.5034 8.73055C12.5053 8.73055 12.5072 8.72865 12.5072 8.72865L12.5167 8.71727C12.5224 8.70778 12.5319 8.70019 12.5452 8.68691C12.549 8.68121 12.5566 8.67172 12.5642 8.66793L12.568 8.66413C12.5699 8.66224 12.5718 8.66224 12.5737 8.66224C12.5756 8.66224 12.5775 8.65844 12.5794 8.65654C12.587 8.65085 12.5965 8.64516 12.6003 8.64326C12.6022 8.64136 12.6022 8.64136 12.6022 8.63947L12.6098 8.63567C12.6117 8.63377 12.6155 8.63188 12.6193 8.62808L12.6212 8.62429H12.6288C12.6307 8.61859 12.6326 8.61859 12.6364 8.6167C12.6364 8.6167 12.6421 8.6129 12.6459 8.611C12.6459 8.60911 12.6497 8.60721 12.6516 8.60721C12.6554 8.60531 12.6573 8.60341 12.6592 8.60341C12.6611 8.60341 12.6611 8.60152 12.6611 8.60152L12.6649 8.59772H12.6687C12.6687 8.59582 12.6687 8.59582 12.6706 8.59582L12.6725 8.59203H12.6839C12.6858 8.59013 12.6877 8.58823 12.6896 8.58823L12.6915 8.58634L12.6972 8.58254C12.701 8.58254 12.7067 8.57875 12.7105 8.57685C12.7124 8.57685 12.7143 8.57495 12.7162 8.57495L12.72 8.57116L12.7238 8.57305C12.7371 8.57305 12.739 8.58634 12.7428 8.60531V8.6148L12.7466 8.6129C12.7504 8.611 12.7542 8.60911 12.758 8.60721L12.796 8.59013L12.815 8.58064C12.8169 8.58064 12.8169 8.57875 12.8188 8.57875V8.57305H12.8245C12.8283 8.57116 12.834 8.56926 12.8378 8.56736C12.8416 8.56546 12.8435 8.56546 12.8435 8.56357C12.8473 8.55977 12.8549 8.55598 12.8606 8.55408L12.8682 8.55028C12.872 8.54649 12.8796 8.54459 12.8853 8.54269C12.891 8.54079 12.8929 8.5389 12.8967 8.537L12.9005 8.53321C12.9024 8.53131 12.9062 8.52941 12.91 8.52751C12.9157 8.52182 12.9252 8.51613 12.9347 8.51233C12.948 8.50284 12.9632 8.49525 12.9708 8.48577L12.9746 8.48007L12.9803 8.48197L12.9841 8.47628C12.9879 8.47438 12.9917 8.47438 12.9936 8.47438C12.9936 8.47248 12.9955 8.47248 12.9955 8.47059C12.9974 8.46869 12.9993 8.46679 13.0031 8.463C13.005 8.463 13.005 8.4611 13.0069 8.4611C13.0088 8.4573 13.0107 8.45541 13.0145 8.45161C13.0183 8.44971 13.0221 8.44592 13.0259 8.44402L13.0316 8.44212C13.0411 8.43264 13.0524 8.42125 13.0619 8.40797C13.0733 8.39658 13.0828 8.38709 13.0942 8.37761L13.1018 8.37381C13.1037 8.37002 13.1075 8.36622 13.1113 8.36432C13.1113 8.36432 13.117 8.36243 13.1208 8.36243C13.1227 8.36053 13.1265 8.35863 13.1284 8.35673L13.1303 8.35484L13.1379 8.35294C13.1398 8.34914 13.1436 8.34725 13.1493 8.34535L13.1531 8.33966C13.1645 8.33396 13.1702 8.32827 13.1759 8.32258C13.1797 8.31689 13.1835 8.31689 13.1854 8.31689C13.1892 8.31499 13.1911 8.31309 13.1949 8.3093C13.1968 8.3074 13.2006 8.3036 13.2044 8.29981C13.2082 8.29601 13.2139 8.29032 13.2177 8.28463C13.2253 8.27704 13.2329 8.26755 13.2443 8.25996L13.2538 8.25047L13.2595 8.26186C13.269 8.27704 13.2747 8.28463 13.2899 8.28463C13.2937 8.28463 13.2994 8.28273 13.3051 8.28083C13.3108 8.28083 13.3146 8.27894 13.3203 8.27704C13.3241 8.27704 13.3298 8.27704 13.3336 8.27704L13.3431 8.27324C13.383 8.19165 13.4115 8.08349 13.4172 7.9981C13.4191 7.99051 13.4191 7.98482 13.4191 7.97913C13.4191 7.97533 13.421 7.97154 13.421 7.96584V7.94877C13.421 7.94307 13.421 7.93738 13.4229 7.92979V7.92599L13.4191 7.9203C13.4172 7.91461 13.4191 7.90512 13.4229 7.89943C13.421 7.89563 13.421 7.89184 13.421 7.88804C13.4191 7.88425 13.4191 7.88045 13.4191 7.87856C13.4172 7.87476 13.4172 7.86907 13.4172 7.86527V7.85579V7.8463C13.4153 7.83871 13.4153 7.83112 13.4153 7.82732V7.80835C13.4153 7.80835 13.4134 7.80455 13.4134 7.80265C13.4134 7.79886 13.4115 7.79696 13.4115 7.79317V7.78558C13.4096 7.77988 13.4096 7.77419 13.4096 7.7685C13.4039 7.73434 13.3963 7.70398 13.3887 7.67362L13.3849 7.65844C13.3849 7.65085 13.383 7.64326 13.3811 7.63757C13.3773 7.63188 13.3773 7.62808 13.3773 7.62618C13.3754 7.62429 13.3754 7.62049 13.3754 7.6148V7.60531C13.3735 7.60341 13.3716 7.60152 13.3716 7.59962C13.3678 7.59393 13.3678 7.58444 13.3659 7.58064V7.57685C13.364 7.57116 13.3621 7.56736 13.3621 7.56357V7.55977H13.3545V7.55598H13.3526C13.3469 7.55598 13.345 7.55598 13.3412 7.55408C13.3393 7.55408 13.3374 7.55408 13.3355 7.55408C13.326 7.55408 13.3108 7.56736 13.3089 7.57116C13.3089 7.57495 13.3051 7.58064 13.3013 7.58444C13.3013 7.58634 13.2994 7.58823 13.2994 7.58823L13.2975 7.59013C13.2823 7.60531 13.2766 7.60531 13.2728 7.60531H13.2671L13.2595 7.59582L13.2614 7.58634C13.2671 7.53131 13.2614 7.52182 13.2614 7.52182C13.2576 7.51802 13.2576 7.51233 13.2576 7.50854C13.2576 7.50664 13.2557 7.50474 13.2557 7.50284C13.2481 7.48577 13.2348 7.47628 13.2215 7.463C13.2177 7.4573 13.2158 7.45541 13.2139 7.45161C13.212 7.44971 13.2101 7.44782 13.2101 7.44782C13.2063 7.44592 13.2006 7.44592 13.1968 7.44212C13.1949 7.44023 13.1949 7.43833 13.193 7.43833C13.1645 7.40987 13.1512 7.3814 13.1512 7.34155C13.1379 7.33776 13.1265 7.33207 13.117 7.32827L13.1018 7.32068C13.0999 7.31878 13.0999 7.31878 13.0999 7.31689C13.098 7.31689 13.0961 7.31689 13.0942 7.31499C13.0866 7.31309 13.0809 7.31309 13.0771 7.31119L13.0695 7.3036H13.0657L13.0638 7.29981C13.06 7.29791 13.0562 7.29412 13.0562 7.29032C13.0543 7.29032 13.0467 7.29032 13.041 7.28842C13.0391 7.28842 13.0373 7.28463 13.0354 7.28273L13.0335 7.28083C13.0297 7.27894 13.0259 7.27704 13.024 7.27324C13.0221 7.27324 13.0202 7.27135 13.0202 7.26945C13.0183 7.26945 13.0164 7.26945 13.0145 7.26755L13.005 7.26376V7.26186C13.0031 7.26186 12.9993 7.25996 12.9993 7.25806C12.9974 7.25617 12.9955 7.25617 12.9936 7.25427C12.9898 7.25237 12.9879 7.24858 12.986 7.24668H12.9822L12.9765 7.24478L12.9746 7.24288C12.9727 7.24098 12.9708 7.23909 12.9708 7.23719C12.9632 7.23339 12.9594 7.2277 12.9575 7.22391C12.9518 7.22011 12.948 7.21821 12.9461 7.21442L12.9404 7.21252L12.9366 7.21062L12.9347 7.20683L12.929 7.20493L12.9271 7.20303L12.9214 7.19734C12.9214 7.19544 12.9176 7.19165 12.9176 7.19165C12.9157 7.18785 12.9119 7.18596 12.9081 7.18596L12.9062 7.18216C12.9024 7.18026 12.9005 7.17647 12.8986 7.17457L12.8967 7.17267C12.8948 7.17267 12.8948 7.17267 12.8929 7.17267C12.8891 7.17078 12.8834 7.16888 12.8834 7.16129C12.8796 7.15939 12.8739 7.15939 12.8701 7.1537C12.8682 7.1537 12.8663 7.1518 12.8663 7.1499C12.8625 7.14801 12.8625 7.14801 12.8606 7.14421C12.8549 7.14042 12.8511 7.13472 12.8492 7.13093L12.8397 7.12713C12.8378 7.12524 12.834 7.12144 12.8302 7.11575C12.8302 7.11385 12.8283 7.11385 12.8283 7.11195C12.8264 7.11006 12.8207 7.10816 12.8169 7.10626C12.8131 7.10436 12.8074 7.10057 12.8036 7.09677C12.8017 7.09677 12.7998 7.09298 12.7979 7.09108H12.7941L12.7903 7.08918C12.7865 7.08539 12.7846 7.08349 12.7846 7.08349C12.7827 7.07969 12.7827 7.0778 12.7827 7.0759C12.7808 7.074 12.7732 7.074 12.7694 7.06831L12.7656 7.06451C12.7599 7.06072 12.7561 7.05692 12.7523 7.05313C12.7428 7.04933 12.7352 7.04364 12.7314 7.03985C12.7276 7.03795 12.7257 7.03605 12.7238 7.03226H12.7162ZM12.2109 7.14421C12.209 7.16508 12.1919 7.16319 12.1862 7.16319H12.1805L12.1786 7.17078H12.1691C12.1672 7.17078 12.1653 7.16888 12.1634 7.16888L12.1596 7.17078C12.1463 7.17267 12.1216 7.17647 12.1007 7.17647C12.0893 7.17647 12.0722 7.17457 12.0589 7.17078L12.0532 7.16888L12.0494 7.16698C12.0475 7.16508 12.0456 7.16319 12.0437 7.16129C12.0323 7.15939 12.0247 7.1499 12.019 7.14231C12.0152 7.13852 12.0114 7.13283 12.0095 7.13093L12 7.12903V7.12144C12 7.11385 12.0038 7.10816 12.0057 7.10436V7.09298L12.0171 7.09488C12.0323 7.09298 12.0456 7.09298 12.057 7.09108C12.0741 7.08918 12.0912 7.08728 12.1045 7.08918C12.1463 7.09108 12.1748 7.11195 12.1976 7.12903L12.2109 7.13662V7.14421ZM12.7998 7.52562C12.8017 7.52562 12.8036 7.52751 12.8055 7.52941C12.8055 7.53131 12.8074 7.53321 12.8093 7.53321C12.815 7.53321 12.8188 7.5389 12.8207 7.54269C12.8283 7.54269 12.8302 7.54839 12.8321 7.55028C12.8321 7.55028 12.8397 7.55408 12.8435 7.55408L12.8454 7.55787C12.8473 7.55787 12.8473 7.55977 12.8473 7.55977H12.853L12.8549 7.56546C12.8568 7.56546 12.8587 7.56926 12.8587 7.57116H12.8644L12.8682 7.57495C12.8701 7.57685 12.872 7.57875 12.8739 7.58064C12.8758 7.58254 12.8796 7.58634 12.8834 7.59393L12.8891 7.60341L12.8815 7.60721C12.8834 7.6148 12.8834 7.62618 12.8739 7.63377C12.8739 7.63377 12.8758 7.63377 12.8739 7.63757C12.8739 7.63947 12.8701 7.64326 12.8663 7.65085C12.8644 7.65085 12.8625 7.65275 12.8625 7.65465C12.8625 7.65654 12.8606 7.65844 12.8587 7.66224C12.8549 7.66793 12.8492 7.66793 12.8454 7.66983V7.67173C12.8435 7.67362 12.8397 7.67742 12.8359 7.67931C12.8264 7.68311 12.8112 7.68691 12.7998 7.68691C12.796 7.6888 12.7922 7.6888 12.7903 7.6888L12.7675 7.6945L12.777 7.67362C12.7808 7.66414 12.7846 7.65465 12.7865 7.64326C12.777 7.6148 12.7466 7.60531 12.7124 7.59393C12.7067 7.59203 12.7048 7.59013 12.6991 7.58823L12.6972 7.58634C12.6934 7.58634 12.6915 7.58634 12.6896 7.58634L12.6782 7.58254V7.57875C12.6763 7.57875 12.6763 7.57875 12.6763 7.57685C12.6687 7.57685 12.663 7.57495 12.6554 7.57305L12.6497 7.56736C12.6459 7.56736 12.644 7.56546 12.6421 7.56546L12.6364 7.56167C12.6326 7.55977 12.6307 7.55787 12.6288 7.55787C12.625 7.55408 12.6174 7.55028 12.6098 7.54459C12.6022 7.5408 12.6003 7.5332 12.5984 7.52941C12.5965 7.52561 12.5946 7.52372 12.5908 7.51992L12.5889 7.51802V7.51233C12.587 7.49336 12.5927 7.48197 12.5984 7.47248L12.6022 7.4592C12.5984 7.4592 12.5946 7.463 12.5889 7.46679C12.5775 7.47628 12.5585 7.48577 12.5376 7.48197L12.5319 7.48007C12.5243 7.47438 12.5224 7.47059 12.5186 7.46489C12.5129 7.45541 12.511 7.44212 12.511 7.42884C12.511 7.41935 12.5091 7.40987 12.5072 7.40417C12.5072 7.39848 12.5053 7.39469 12.5034 7.38899C12.4996 7.3814 12.4977 7.37381 12.4958 7.36432V7.34725L12.5129 7.35104C12.549 7.36053 12.5832 7.37381 12.6231 7.39848H12.6269L12.6307 7.40417C12.6345 7.40417 12.6383 7.40607 12.6421 7.40797C12.6459 7.40987 12.6478 7.41176 12.6478 7.41556C12.6535 7.41556 12.6573 7.41746 12.6649 7.42125L12.6687 7.42505C12.6744 7.42694 12.6801 7.43264 12.6877 7.43833L12.6896 7.44023C12.6953 7.44212 12.6991 7.44592 12.7029 7.44971C12.7048 7.44971 12.7067 7.45161 12.7086 7.45351L12.7105 7.4573C12.7124 7.4592 12.7162 7.4592 12.7162 7.4611C12.7466 7.48387 12.7751 7.50474 12.7998 7.52562Z" fill="white"/>
<g opacity="0.15">
<mask id="mask0_5_2108" style="mask-type:luminance" maskUnits="userSpaceOnUse" x="10" y="8" width="1" height="2">
<path d="M10.3741 8.92599H10.2734V9.0778H10.3741V8.92599Z" fill="white"/>
</mask>
<g mask="url(#mask0_5_2108)">
<path d="M10.3096 8.95446C10.3001 8.94307 10.2925 8.9241 10.2754 8.9184C10.2716 8.93358 10.2735 8.94876 10.2754 8.96205C10.2754 8.96584 10.2773 8.96964 10.2773 8.96964C10.2773 8.96964 10.283 8.97533 10.2849 8.97912C10.2887 8.98482 10.2887 8.99051 10.2887 8.9943L10.2906 9C10.3248 9.02277 10.3324 9.0721 10.3723 9.08159C10.3761 9.05882 10.3647 9.01708 10.3514 8.9962C10.3419 8.98292 10.3267 8.97533 10.3172 8.96584C10.3134 8.96205 10.3115 8.96015 10.3096 8.95446Z" fill="white"/>
</g>
</g>
<g opacity="0.15">
<mask id="mask1_5_2108" style="mask-type:luminance" maskUnits="userSpaceOnUse" x="10" y="8" width="1" height="1">
<path d="M10.4843 8.90512H10.4121V8.98102H10.4843V8.90512Z" fill="white"/>
</mask>
<g mask="url(#mask1_5_2108)">
<path d="M10.4122 8.91632C10.4065 8.9334 10.4255 8.93909 10.4369 8.94668C10.4502 8.95048 10.4654 8.98084 10.4768 8.97894C10.492 8.97894 10.473 8.95048 10.4711 8.94479C10.4654 8.92961 10.4559 8.91443 10.4407 8.91063C10.4312 8.90684 10.4179 8.90494 10.4122 8.91632Z" fill="white"/>
</g>
</g>
<path d="M9.10112 10.3302H9.09162L9.07833 10.3245C9.05173 10.3131 9.02893 10.3017 9.00234 10.2922C8.99854 10.2922 8.99664 10.2922 8.99094 10.2903L8.98334 10.2884C8.98144 10.2884 8.97764 10.2846 8.97574 10.2827C8.96815 10.2827 8.95865 10.2808 8.95105 10.277C8.94915 10.277 8.94535 10.2751 8.94155 10.2732C8.93775 10.2713 8.93205 10.2695 8.92825 10.2695C8.91875 10.2657 8.91496 10.2657 8.90926 10.2638H8.90546C8.90166 10.2619 8.89786 10.2581 8.89596 10.2562C8.89406 10.2562 8.89026 10.2562 8.88646 10.2562C8.88076 10.2543 8.87506 10.2543 8.87126 10.2524L8.85987 10.2486C8.85607 10.2467 8.85037 10.2448 8.84657 10.2429C8.84277 10.241 8.83897 10.2391 8.83517 10.2372C8.83137 10.2353 8.82757 10.2334 8.82377 10.2315C8.81997 10.2296 8.81427 10.2296 8.80857 10.2296C8.80288 10.2296 8.79718 10.2277 8.79148 10.2277C8.77818 10.2239 8.76868 10.2125 8.75918 10.203C8.75348 10.1954 8.74589 10.186 8.74019 10.186C8.72879 10.1822 8.71739 10.1803 8.70599 10.1803L8.6775 10.1746C8.668 10.1727 8.668 10.1708 8.6661 10.1708C8.6661 10.1689 8.6642 10.1689 8.6642 10.1689C8.6585 10.1708 8.6547 10.1708 8.649 10.1689C8.6452 10.1689 8.6414 10.1651 8.63951 10.1651C8.63571 10.1651 8.63571 10.1651 8.63381 10.1651H8.62621H8.62051C8.61291 10.1651 8.60151 10.1575 8.59201 10.1556L8.58632 10.1537H8.58062C8.55402 10.1518 8.53123 10.148 8.50843 10.1442C8.44764 10.1366 8.39255 10.1309 8.32796 10.1328H8.32036L8.31656 10.1271C8.31087 10.1176 8.30707 10.1025 8.30517 10.093C8.30327 10.0873 8.30327 10.0835 8.30137 10.0816V10.074C8.29947 10.0721 8.29947 10.0721 8.29757 10.0702C8.29567 10.0683 8.29187 10.0645 8.28997 10.0588C8.27857 10.0569 8.26527 10.0588 8.25198 10.0588C8.23488 10.0607 8.21588 10.0607 8.19879 10.0588C8.18929 10.0569 8.17599 10.055 8.16649 10.0512C8.15319 10.0474 8.138 10.0436 8.1285 10.0436C8.1247 10.0436 8.119 10.0417 8.1152 10.0361L8.1057 10.0342C8.0981 10.0323 8.09051 10.0304 8.08101 10.0266C8.07531 10.0247 8.06771 10.019 8.06011 10.0152C8.05441 10.0133 8.04491 10.0076 8.04111 10.0076C8.03352 10.0076 8.02592 10.0038 8.01072 9.99051C8.00312 9.98672 7.99742 9.98482 7.99172 9.98292C7.98602 9.98103 7.98033 9.97913 7.97653 9.97533C7.96893 9.97344 7.96893 9.96774 7.96703 9.96395C7.96703 9.96395 7.96133 9.96205 7.95943 9.96205C7.95373 9.96015 7.94993 9.95826 7.94613 9.95446C7.94423 9.95256 7.94233 9.95067 7.94043 9.95067L7.93283 9.94687C7.93093 9.94497 7.93093 9.94307 7.92903 9.94307C7.92713 9.94877 7.92144 9.95636 7.91384 9.95636H7.91004L7.90054 9.95067C7.89674 9.94687 7.89104 9.94497 7.88724 9.94118C7.88724 9.93928 7.88534 9.93928 7.88154 9.93738C7.87964 9.93549 7.87774 9.93549 7.87584 9.93359C7.87394 9.93169 7.87205 9.92979 7.87015 9.92789C7.86635 9.926 7.86445 9.9241 7.86255 9.9241C7.85685 9.91841 7.85495 9.91651 7.84925 9.91461C7.84165 9.90892 7.83785 9.90512 7.83405 9.90133H7.82835L7.82265 9.89564C7.82076 9.89564 7.81696 9.88994 7.81506 9.88615C7.81506 9.88425 7.81126 9.88425 7.81126 9.88425C7.80556 9.88425 7.79986 9.88235 7.79416 9.87856C7.79226 9.87476 7.79036 9.87097 7.78656 9.86717L7.77896 9.86528L7.77706 9.86338C7.77516 9.86148 7.77326 9.85958 7.77326 9.85579H7.76757C7.76377 9.85579 7.75997 9.85389 7.75807 9.8501C7.75617 9.8501 7.75427 9.8501 7.75427 9.8482H7.75047C7.74667 9.84251 7.74477 9.84061 7.74287 9.83681H7.74097L7.73717 9.83492C7.73337 9.83302 7.73147 9.83112 7.72957 9.82733H7.72577L7.71817 9.82353C7.71627 9.82163 7.71627 9.81974 7.71627 9.81594L7.71247 9.81784L7.70868 9.81594C7.70488 9.81404 7.70298 9.81025 7.70108 9.80835L7.69728 9.80645C7.69158 9.80645 7.68968 9.80076 7.68588 9.79697L7.68018 9.79507C7.67448 9.79317 7.67258 9.78748 7.67258 9.78368C7.66878 9.77799 7.66498 9.7723 7.66118 9.7666C7.65928 9.76091 7.65739 9.75522 7.65549 9.75332L7.64789 9.74763C7.64789 9.74573 7.64599 9.74383 7.64219 9.74194C7.64029 9.74194 7.63649 9.74004 7.63459 9.73814C7.63269 9.73624 7.63079 9.73435 7.62889 9.73435L7.61939 9.72676C7.61559 9.72486 7.61369 9.72296 7.60989 9.72106C7.60229 9.71537 7.5966 9.71158 7.5947 9.71158C7.589 9.71158 7.5852 9.70778 7.5833 9.70399C7.5833 9.70399 7.5814 9.70399 7.5795 9.70399C7.5776 9.70399 7.5719 9.70209 7.5662 9.70019L7.5643 9.69829L7.5624 9.6964C7.5624 9.6964 7.5586 9.6945 7.5567 9.6945C7.5548 9.68881 7.54341 9.68311 7.53391 9.67932C7.52631 9.67552 7.51871 9.67173 7.51491 9.66983C7.51111 9.66793 7.50921 9.66604 7.50731 9.66604C7.49591 9.66034 7.48832 9.65845 7.48072 9.65655C7.47882 9.65465 7.47122 9.65086 7.46552 9.64896L7.45602 9.64516C7.45032 9.64327 7.44462 9.64137 7.43892 9.63947L7.43323 9.63567H7.43133C7.42753 9.63567 7.42183 9.63567 7.41803 9.62808L7.40663 9.62619C7.39903 9.62429 7.39333 9.62239 7.38573 9.62049C7.37434 9.6167 7.37054 9.60531 7.36484 9.59583C7.36294 9.59203 7.35914 9.58444 7.35724 9.58254C7.35344 9.58254 7.34964 9.58065 7.34774 9.57685C7.34204 9.57685 7.33824 9.57495 7.33254 9.57495C7.32684 9.57306 7.31925 9.57116 7.31355 9.56926C7.30595 9.56547 7.29265 9.56736 7.28315 9.56926C7.26796 9.57116 7.25276 9.57306 7.24136 9.56926C7.23756 9.56736 7.22996 9.56736 7.22236 9.56547C7.19577 9.55788 7.17487 9.55218 7.16347 9.5427C7.16157 9.5427 7.16158 9.5427 7.15968 9.54459H7.15208H7.13498C7.13498 9.54459 7.13688 9.5389 7.13498 9.5389H7.13118C7.12358 9.537 7.11978 9.53511 7.11598 9.53321C7.11218 9.52941 7.10839 9.52941 7.10269 9.52752C7.09889 9.52752 7.09319 9.52562 7.09129 9.52182C7.08369 9.51993 7.08369 9.51992 7.07989 9.51803C7.07229 9.51613 7.06469 9.51423 7.05709 9.51234L7.0457 9.50854V9.50474C7.0419 9.50474 7.0362 9.50475 7.0324 9.50285L7.0286 9.50095C7.0267 9.49905 7.0267 9.49905 7.0248 9.49905C7.0191 9.49526 7.0115 9.49526 7.0058 9.49336C7.0001 9.49146 6.99251 9.48956 6.98681 9.48577L6.98301 9.48387L6.97921 9.48198C6.97921 9.48008 6.97541 9.47818 6.97351 9.47818C6.96211 9.47249 6.95451 9.47059 6.94501 9.46679C6.93552 9.4649 6.92602 9.4611 6.92032 9.45731C6.91462 9.45351 6.91082 9.45161 6.90702 9.44782C6.90512 9.44592 6.90132 9.44402 6.90132 9.44213C6.89372 9.44213 6.88992 9.44023 6.88613 9.43454C6.88233 9.43454 6.87663 9.43454 6.87093 9.43074L6.86713 9.42695C6.86713 9.42695 6.86523 9.42695 6.86523 9.42505C6.86143 9.42315 6.85953 9.42315 6.85573 9.42125C6.83863 9.40987 6.81204 9.39089 6.79684 9.37571H6.79494H6.78734L6.78354 9.37002C6.77974 9.36623 6.77785 9.36243 6.77595 9.36053C6.77595 9.35864 6.77595 9.35674 6.77405 9.35674C6.76835 9.34915 6.76265 9.34345 6.75505 9.33776C6.75125 9.33397 6.74555 9.33017 6.74175 9.32638C6.73795 9.32068 6.73795 9.31499 6.73795 9.3112L6.73225 9.3055C6.72276 9.29981 6.71326 9.29222 6.71136 9.27894C6.70946 9.27894 6.70756 9.27704 6.70756 9.27514C6.70186 9.26755 6.70186 9.26376 6.69996 9.25996C6.69996 9.25807 6.69996 9.25617 6.69806 9.25427C6.69426 9.25237 6.68856 9.24858 6.68666 9.24289C6.68666 9.23909 6.68666 9.2334 6.68476 9.2296V9.22581C6.68286 9.22581 6.68286 9.22391 6.68096 9.22391C6.67526 9.22391 6.67146 9.22011 6.66767 9.21632C6.66007 9.20493 6.65627 9.18786 6.65057 9.16888C6.64867 9.16509 6.64867 9.16129 6.64677 9.15939C6.64297 9.14991 6.64297 9.14421 6.64297 9.13662L6.63917 9.13283L6.63727 9.12903C6.63347 9.11196 6.63157 9.09678 6.62967 9.0797C6.62777 9.06831 6.62587 9.05693 6.62397 9.04744C6.62397 9.03985 6.62207 9.03416 6.62017 9.02846C6.61827 9.02277 6.61637 9.01518 6.61637 9.00759C6.61448 9.0019 6.61448 8.99621 6.61448 8.98862C6.61448 8.98292 6.61258 8.97533 6.61258 8.96774C6.60878 8.96395 6.60878 8.96205 6.60878 8.96015C6.60878 8.95826 6.60878 8.95256 6.60878 8.94497V8.92979C6.60688 8.9203 6.60688 8.91271 6.60498 8.90512C6.60308 8.88994 6.60308 8.88235 6.60308 8.87097L6.60118 8.85958C6.60118 8.85579 6.60118 8.85389 6.59928 8.8501C6.59928 8.8482 6.59738 8.8444 6.59738 8.83871C6.59548 8.82163 6.59358 8.80835 6.58978 8.79507C6.58788 8.78558 6.58598 8.77419 6.58408 8.76281C6.58408 8.75901 6.58408 8.75522 6.58598 8.75142L6.58218 8.74953L6.58028 8.74194C6.57838 8.72865 6.57648 8.71347 6.57458 8.70019C6.57268 8.68691 6.57078 8.67363 6.56888 8.66224L6.56698 8.65845L6.56888 8.65465C6.57268 8.64706 6.57838 8.64137 6.58218 8.63757C6.58408 8.63568 6.58408 8.63568 6.58598 8.63378C6.58598 8.63188 6.58788 8.62998 6.58788 8.62808C6.59358 8.62049 6.59548 8.6167 6.59928 8.6148L6.60498 8.60531C6.60878 8.59962 6.60878 8.59583 6.61448 8.59203C6.61448 8.59013 6.61637 8.59013 6.61827 8.58824C6.62207 8.58254 6.62397 8.58254 6.62587 8.57875C6.63537 8.56926 6.64297 8.55977 6.65057 8.55029C6.66387 8.53131 6.67716 8.51234 6.69046 8.49905C6.68666 8.49716 6.68666 8.49526 6.69046 8.49146L6.69236 8.48767C6.69426 8.48577 6.69806 8.48387 6.69996 8.48008C6.69996 8.48008 6.70186 8.48008 6.70376 8.47818C6.70756 8.47249 6.71136 8.46869 6.71516 8.4649L6.71896 8.4611C6.71896 8.45731 6.72275 8.45351 6.72655 8.44972C6.72845 8.44592 6.73035 8.44402 6.73225 8.44213C6.73605 8.43643 6.73985 8.43454 6.74175 8.43264C6.74365 8.42884 6.74365 8.42315 6.74745 8.41936C6.75125 8.41366 6.75695 8.41177 6.75885 8.41177C6.75885 8.40797 6.76075 8.40607 6.76265 8.40228C6.76455 8.39659 6.76835 8.39279 6.77405 8.39279C6.77405 8.389 6.77595 8.3852 6.77785 8.38141C6.78164 8.37761 6.78544 8.37571 6.78924 8.37192C6.78924 8.37002 6.79114 8.36623 6.79304 8.36243C6.79494 8.35864 6.79684 8.35674 6.80064 8.35484L6.80254 8.34915C6.80254 8.34915 6.80254 8.34345 6.80444 8.34345L6.80634 8.33966C6.81014 8.33397 6.81394 8.33207 6.81774 8.33017C6.81774 8.32638 6.81774 8.32448 6.81964 8.32068L6.82344 8.31499C6.82534 8.31309 6.82534 8.3112 6.82724 8.3093C6.82914 8.3074 6.83104 8.3055 6.83483 8.30361C6.83483 8.30171 6.83673 8.30171 6.83673 8.30171C6.84053 8.29602 6.84243 8.29032 6.84623 8.28463C6.84813 8.27894 6.85193 8.27514 6.85573 8.26945C6.85573 8.26566 6.85763 8.26566 6.85763 8.26376C6.85953 8.26186 6.86143 8.25807 6.86333 8.25617V8.24858C6.86523 8.24289 6.86903 8.23909 6.87283 8.23719C6.87663 8.2334 6.87663 8.2296 6.87853 8.22771C6.88043 8.22201 6.88233 8.21822 6.88423 8.21253L6.88992 8.20114L6.89182 8.20304C6.89372 8.19734 6.89372 8.19355 6.89562 8.18975C6.89562 8.18975 6.89942 8.18406 6.90322 8.18216C6.90512 8.17837 6.90702 8.17647 6.90702 8.17268L6.90892 8.16698L6.92032 8.14042C6.92412 8.13283 6.92602 8.12524 6.92982 8.11955C6.93932 8.09298 6.94881 8.05693 6.95831 8.02657L6.96401 8C6.96591 8 6.96401 7.9981 6.96401 7.99621V7.98482L6.96591 7.97723C6.96781 7.96964 6.96971 7.96015 6.96971 7.95256C6.97161 7.94497 6.96971 7.93928 6.96971 7.93169C6.96781 7.926 6.96781 7.91841 6.96781 7.91082C6.96591 7.90323 6.96591 7.89564 6.96591 7.88805C6.96781 7.88235 6.96781 7.87476 6.96591 7.87097C6.96021 7.86717 6.96211 7.85958 6.96401 7.85199L6.96211 7.8501V7.8463C6.96021 7.8463 6.95451 7.84251 6.95451 7.82163L6.95071 7.81404C6.94691 7.80835 6.94311 7.79697 6.94311 7.78748C6.94122 7.78558 6.94122 7.78178 6.94122 7.77989C6.93932 7.77799 6.93742 7.7723 6.93362 7.7685C6.92982 7.76281 6.92412 7.75712 6.92222 7.74953C6.92222 7.74953 6.92032 7.74763 6.91842 7.74573L6.91082 7.72296C6.90892 7.72106 6.90702 7.71917 6.90322 7.71537C6.89752 7.70778 6.88803 7.6964 6.88613 7.68122L6.88423 7.67552L6.88992 7.66983C6.92412 7.64137 6.93932 7.58634 6.93742 7.49526C6.88802 7.43833 6.83483 7.40607 6.76645 7.39848C6.75125 7.39848 6.73605 7.39848 6.72086 7.39848C6.67906 7.39848 6.63727 7.40038 6.61068 7.40418C6.57268 7.40987 6.56508 7.41366 6.56508 7.41556C6.55749 7.41936 6.55369 7.41936 6.54799 7.41746V7.42125H6.53849C6.53469 7.42315 6.52899 7.42315 6.52519 7.42505C6.51949 7.42505 6.51569 7.42505 6.51189 7.42695C6.491 7.43074 6.472 7.43643 6.4549 7.44213C6.43971 7.44402 6.42451 7.44782 6.41121 7.45161C6.39981 7.45541 6.39032 7.45731 6.38272 7.4592C6.37512 7.463 6.36942 7.4649 6.36372 7.4649C6.34662 7.47059 6.33143 7.47249 6.31433 7.47438C6.29723 7.47818 6.28394 7.48008 6.26874 7.48387C6.27064 7.50095 6.26874 7.51613 6.26684 7.52941C6.26684 7.5427 6.26494 7.55788 6.26494 7.56926V7.57875L6.25734 7.58254C6.25354 7.58254 6.25164 7.58444 6.24974 7.58634C6.24784 7.58634 6.24594 7.58824 6.24404 7.59013C6.24214 7.59203 6.24024 7.59393 6.23834 7.59583C6.23644 7.59962 6.23454 7.60152 6.23074 7.60342L6.22885 7.60531C6.22885 7.60531 6.22125 7.60721 6.21935 7.60721C6.21745 7.60911 6.21745 7.61101 6.21555 7.61101L6.21175 7.6148C6.21175 7.6167 6.20795 7.6167 6.20225 7.6186C6.20035 7.62049 6.19845 7.62049 6.19655 7.62049C6.19465 7.62239 6.19465 7.62429 6.19465 7.62429C6.19085 7.62998 6.18705 7.63568 6.17945 7.63757L6.17565 7.64137C6.16426 7.64896 6.15286 7.65845 6.14146 7.66983L6.13766 7.67363C6.12626 7.68501 6.11487 7.6945 6.10347 7.70209C6.10347 7.70588 6.10347 7.71158 6.09967 7.71347C6.09777 7.71727 6.09397 7.71917 6.09017 7.71917C6.09017 7.72106 6.09017 7.72296 6.08827 7.72486L6.08637 7.72865C6.08257 7.73055 6.07687 7.73435 6.07307 7.73814C6.06927 7.74004 6.05978 7.74763 6.05598 7.74953C6.05598 7.75901 6.05028 7.7666 6.03698 7.77799C6.03698 7.77989 6.03508 7.78178 6.03318 7.78178C6.02938 7.78748 6.02558 7.79127 6.01988 7.79507L6.02178 7.80266L6.01608 7.81025C6.01608 7.81025 6.01418 7.81215 6.01418 7.81404C6.01038 7.81974 6.00659 7.82353 6.00279 7.82543C6.00089 7.82733 5.99899 7.82922 5.99899 7.82922C5.99519 7.83302 5.99329 7.83681 5.99139 7.83871C5.99139 7.84061 5.98949 7.8444 5.98759 7.8482L5.98569 7.8501C5.98379 7.85199 5.98189 7.85389 5.97999 7.85389C5.97999 7.85769 5.97999 7.85958 5.97429 7.86338C5.97429 7.86717 5.97239 7.86907 5.97049 7.87097C5.96859 7.87097 5.96669 7.87287 5.96479 7.87287C5.96289 7.87856 5.96289 7.88046 5.96099 7.88425C5.96099 7.89184 5.95719 7.89564 5.9534 7.89753C5.9515 7.90133 5.9496 7.90323 5.9477 7.90702C5.9458 7.91082 5.942 7.91651 5.9401 7.91841C5.9401 7.926 5.9363 7.92979 5.9325 7.93359C5.9325 7.93549 5.9306 7.93738 5.9306 7.93738C5.9306 7.94877 5.9249 7.95256 5.9211 7.95446C5.9211 7.96205 5.9154 7.96964 5.9116 7.97344L5.9097 7.97723C5.9097 7.97913 5.9078 7.98482 5.904 7.98672C5.904 7.98672 5.90211 7.98862 5.90211 7.99051C5.90211 7.99431 5.9021 7.99621 5.90021 8C5.89641 8.00569 5.89641 8.00949 5.89451 8.01328C5.89261 8.01898 5.88691 8.02846 5.88691 8.03226C5.88501 8.03795 5.88121 8.04364 5.87931 8.04744C5.87741 8.04744 5.87741 8.04934 5.87741 8.04934C5.87551 8.05503 5.87361 8.05883 5.86981 8.06262C5.86981 8.06452 5.86791 8.06831 5.86791 8.07021C5.86791 8.0759 5.86791 8.0797 5.86601 8.08349C5.86411 8.08919 5.86221 8.09488 5.86031 8.10247C5.85841 8.10626 5.85651 8.11006 5.85461 8.11385C5.84132 8.16319 5.83182 8.20114 5.82802 8.23909C5.82422 8.27704 5.82422 8.3093 5.82612 8.33207C5.82802 8.34725 5.82612 8.36243 5.82612 8.37382C5.82612 8.389 5.82612 8.40228 5.82992 8.41556L5.83182 8.42505L5.82422 8.42884C5.82232 8.43264 5.81852 8.43264 5.81852 8.43643V8.44213C5.81662 8.44782 5.81282 8.44972 5.80712 8.45161C5.80712 8.45731 5.80712 8.4611 5.80332 8.4649C5.79952 8.46869 5.79762 8.46869 5.79572 8.47059C5.79572 8.47249 5.79572 8.47628 5.79382 8.47818C5.79003 8.48008 5.78813 8.48387 5.78623 8.48387L5.78243 8.48767C5.77673 8.49716 5.76913 8.50664 5.76533 8.51423V8.52372L5.76153 8.52752C5.75773 8.52941 5.75583 8.53131 5.75203 8.53131V8.537C5.75203 8.5408 5.75203 8.54649 5.74823 8.55218C5.74633 8.55598 5.74063 8.55788 5.73683 8.55977C5.73304 8.57116 5.72924 8.57875 5.72544 8.59393C5.72544 8.59772 5.72354 8.60152 5.71784 8.60342C5.71594 8.60721 5.71594 8.61101 5.71404 8.6148C5.71214 8.6167 5.71214 8.62049 5.71214 8.62239C5.70644 8.63188 5.70074 8.64327 5.70074 8.64706C5.67605 8.70968 5.65895 8.77989 5.64945 8.86528L5.64755 8.87666C5.64185 8.90133 5.63805 8.9241 5.63615 8.94687V8.96395C5.63235 9.00569 5.62855 9.05313 5.63425 9.09678C5.63615 9.10057 5.63615 9.10437 5.63805 9.10816C5.63805 9.12714 5.63995 9.14801 5.63995 9.16319C5.64185 9.20114 5.64375 9.2353 5.64945 9.26755C5.64945 9.26755 5.65325 9.27135 5.65325 9.27704C5.65515 9.28084 5.65325 9.28463 5.65325 9.28843C5.65895 9.33586 5.66465 9.37002 5.67225 9.40987C5.68554 9.4649 5.70074 9.53131 5.71974 9.59013C5.72164 9.59393 5.72354 9.59962 5.72544 9.60342C5.72924 9.61101 5.73304 9.62429 5.73683 9.62808C5.74253 9.63188 5.74253 9.64137 5.74443 9.65655C5.74443 9.65845 5.74443 9.66034 5.74633 9.66414C5.74633 9.66604 5.74633 9.66983 5.74823 9.67173C5.74823 9.67552 5.75013 9.67742 5.75203 9.67932C5.75393 9.68311 5.75583 9.68501 5.75583 9.68881H5.75963L5.76153 9.6964C5.76343 9.70209 5.76533 9.70778 5.76533 9.71347C5.76913 9.71537 5.77293 9.71917 5.77483 9.72486C5.77863 9.73055 5.77863 9.73435 5.77863 9.73624C5.78053 9.73814 5.78053 9.74004 5.78053 9.74383C5.78813 9.74953 5.78623 9.75712 5.78623 9.76091C5.79003 9.7723 5.79572 9.77799 5.80142 9.78368C5.80522 9.78748 5.80522 9.79507 5.80332 9.80076C5.81092 9.81215 5.81662 9.82543 5.81852 9.83871C5.82422 9.84251 5.83182 9.8463 5.83752 9.8482C5.84322 9.8482 5.84702 9.8501 5.85271 9.85199C5.85651 9.85389 5.86031 9.85769 5.86031 9.86148C5.86601 9.86148 5.86791 9.86338 5.87171 9.86717C5.87551 9.86717 5.88121 9.86907 5.88691 9.87287C5.89071 9.87287 5.89261 9.87856 5.89451 9.88046C5.904 9.88235 5.9097 9.88994 5.9135 9.89374C5.9154 9.89564 5.9154 9.89564 5.9173 9.89753L5.923 9.89943C5.9363 9.90702 5.9439 9.91271 5.9496 9.92031H5.95909L5.96289 9.9241C5.96289 9.9279 5.96479 9.93169 5.96669 9.93359C5.96859 9.93549 5.97049 9.93738 5.97239 9.93738C5.97429 9.94118 5.97619 9.94307 5.97809 9.94307C5.97999 9.94497 5.98379 9.94687 5.98569 9.94877C5.98759 9.95067 5.98949 9.95256 5.99329 9.95636C5.99519 9.95826 6.00279 9.96395 6.00469 9.96585C6.01798 9.96964 6.02558 9.97723 6.02938 9.98672C6.03128 9.98672 6.03318 9.99051 6.03318 9.99051C6.04458 9.99431 6.05218 10.0057 6.05598 10.0095L6.06358 10.0114C6.06737 10.0152 6.06927 10.019 6.07117 10.0228C6.07307 10.0247 6.07497 10.0266 6.07687 10.0304C6.07877 10.0323 6.08067 10.0323 6.08067 10.0342H6.08447L6.09207 10.0361C6.09777 10.038 6.09967 10.0436 6.10157 10.0474C6.10157 10.0493 6.10347 10.0493 6.10537 10.0493C6.10727 10.0512 6.11107 10.0531 6.11297 10.0531H6.11487C6.12057 10.0512 6.12436 10.0474 6.13006 10.0474H6.13386L6.13956 10.0512C6.14716 10.0588 6.15476 10.0626 6.16236 10.0664C6.17376 10.074 6.18515 10.0816 6.19845 10.0949C6.20415 10.1025 6.21175 10.1195 6.21935 10.1309C6.22315 10.1347 6.22505 10.1404 6.22695 10.1423C6.23454 10.1537 6.24214 10.1556 6.25164 10.1575C6.26304 10.1613 6.27634 10.1632 6.28773 10.1746C6.29533 10.1841 6.30483 10.1954 6.31243 10.2068C6.31813 10.2163 6.32573 10.2277 6.33713 10.2353C6.35992 10.2543 6.39032 10.2695 6.42071 10.2827C6.43401 10.2884 6.44731 10.2941 6.4587 10.2998C6.4986 10.3207 6.51189 10.3397 6.52899 10.3757C6.55559 10.425 6.56698 10.4326 6.59928 10.4573C6.60688 10.463 6.60878 10.4668 6.62017 10.4744C6.65057 10.4972 6.66767 10.5218 6.69046 10.5503L6.69806 10.5598C6.72655 10.5958 6.76265 10.6376 6.80444 10.649C6.83294 10.6565 6.86903 10.6717 6.88992 10.6812C6.89752 10.6831 6.89942 10.6907 6.90132 10.6964C6.90322 10.6983 6.90322 10.6983 6.90512 10.7002C6.90892 10.7021 6.91462 10.704 6.91842 10.704C6.92412 10.7059 6.92602 10.7078 6.93172 10.7116C6.93172 10.7135 6.93362 10.7135 6.93552 10.7135H6.93932C6.94691 10.7173 6.95261 10.7287 6.96211 10.7514C6.96591 10.7571 6.96971 10.7666 6.97351 10.7704C6.97731 10.7723 6.97921 10.7742 6.98111 10.778C6.98491 10.7799 6.98681 10.7799 6.98871 10.7799C6.9982 10.7837 7.0039 10.7875 7.0172 10.7932C7.0191 10.7932 7.0229 10.797 7.0229 10.797C7.0248 10.797 7.0286 10.797 7.0324 10.8008H7.0381H7.0419C7.0514 10.8027 7.0533 10.8084 7.0533 10.8121C7.05519 10.8121 7.05709 10.8121 7.05709 10.814C7.06089 10.814 7.06279 10.814 7.06659 10.8159H7.07039L7.07419 10.8197C7.07609 10.8197 7.07989 10.8216 7.08179 10.8235L7.08369 10.8254C7.08559 10.8254 7.08749 10.8254 7.09129 10.8273L7.09319 10.8292C7.09509 10.8292 7.09509 10.8311 7.09699 10.8311C7.10079 10.8349 7.10459 10.8387 7.10839 10.8425C7.11598 10.8425 7.11978 10.8444 7.12168 10.8482C7.12738 10.852 7.13308 10.8539 7.13878 10.8558C7.14448 10.8577 7.15018 10.8596 7.15588 10.8615L7.16158 10.8672C7.16537 10.871 7.16917 10.8729 7.17107 10.8748C7.18247 10.8805 7.19387 10.8918 7.20337 10.9013C7.21097 10.9089 7.21667 10.9165 7.22426 10.9203C7.22616 10.9203 7.22806 10.9222 7.23186 10.9241C7.23376 10.926 7.23566 10.9279 7.23756 10.9279C7.24136 10.9279 7.24896 10.9298 7.25276 10.9355C7.25656 10.9355 7.26036 10.9355 7.26606 10.9393C7.26986 10.9412 7.27176 10.945 7.27365 10.9488C7.27555 10.9488 7.27555 10.9488 7.27745 10.9507C7.28315 10.9507 7.28885 10.9507 7.29455 10.9545C7.30405 10.9602 7.31165 10.9658 7.31925 10.9715H7.32874L7.33064 10.9753L7.33254 10.9772C7.35154 10.9886 7.37244 11.0019 7.38383 11.0152C7.38383 11.0152 7.38573 11.0152 7.38763 11.0152C7.39143 11.0171 7.39523 11.019 7.39713 11.0209C7.40093 11.0228 7.40663 11.0247 7.40853 11.0266C7.41613 11.0285 7.41993 11.0304 7.42563 11.0342C7.43133 11.0361 7.43702 11.0417 7.44272 11.0455C7.45032 11.0493 7.45982 11.0569 7.46362 11.0569C7.46932 11.0569 7.47502 11.0607 7.47692 11.0645C7.47882 11.0664 7.48452 11.0683 7.48832 11.0683C7.49401 11.0702 7.49781 11.0721 7.50161 11.074C7.51301 11.0816 7.52631 11.0873 7.53391 11.093C7.53961 11.0968 7.551 11.1006 7.5548 11.1025C7.5643 11.1025 7.5681 11.1082 7.57 11.112C7.57 11.112 7.57 11.112 7.5681 11.1101C7.5776 11.112 7.5833 11.1176 7.5871 11.1214C7.5928 11.1214 7.5985 11.1252 7.60039 11.129C7.60419 11.1309 7.60989 11.1328 7.61559 11.1347C7.62319 11.1366 7.62889 11.1404 7.63459 11.1423C7.63649 11.1442 7.64029 11.148 7.64409 11.1499C7.64599 11.1499 7.64789 11.1518 7.64979 11.1518C7.65928 11.1518 7.67638 11.1632 7.68588 11.1727L7.69158 11.1708C7.69918 11.1708 7.70488 11.1746 7.70868 11.1803C7.71817 11.1841 7.73147 11.1879 7.74287 11.1935L7.74477 11.1954C7.75047 11.1954 7.75617 11.1992 7.75997 11.203C7.76946 11.2068 7.77896 11.2106 7.78086 11.2106L7.78466 11.2125C7.79036 11.2144 7.79606 11.2163 7.79986 11.2182C7.80366 11.2201 7.81126 11.2201 7.81696 11.2239C7.82455 11.2258 7.83405 11.2296 7.84355 11.2334L7.85495 11.2391C7.86445 11.241 7.87015 11.2448 7.87395 11.2467H7.88154C7.88344 11.2467 7.88534 11.2467 7.88724 11.2486C7.88914 11.2486 7.89484 11.2505 7.89864 11.2543C7.90244 11.2562 7.90814 11.2562 7.91384 11.2581C7.92144 11.26 7.92903 11.2619 7.93663 11.2638C7.95373 11.2695 7.96893 11.277 7.98413 11.2827C8.00692 11.2941 8.02782 11.3055 8.04871 11.3074C8.05251 11.3074 8.05821 11.3093 8.06201 11.315C8.06961 11.3169 8.07721 11.3188 8.08291 11.3207C8.1019 11.3264 8.119 11.3321 8.1304 11.3321C8.1323 11.3321 8.138 11.334 8.1418 11.3397C8.14749 11.3397 8.15319 11.3397 8.15699 11.3416C8.16649 11.3416 8.17599 11.3416 8.18549 11.3435L8.19309 11.3472V11.351C8.19499 11.351 8.20069 11.351 8.20258 11.351C8.20448 11.351 8.20828 11.3472 8.21208 11.3472C8.22348 11.351 8.22918 11.3548 8.23108 11.3586C8.23678 11.3586 8.24248 11.3586 8.24818 11.3624H8.25388L8.25768 11.3662C8.26527 11.3681 8.26717 11.3681 8.27667 11.37C8.28237 11.37 8.28617 11.3719 8.28997 11.3757C8.29567 11.3776 8.30137 11.3776 8.30897 11.3814C8.31656 11.3833 8.32796 11.3852 8.33936 11.389L8.36976 11.3966C8.37545 11.3966 8.38115 11.4004 8.38305 11.4004C8.38685 11.4004 8.39065 11.4023 8.39445 11.4061H8.40015C8.40395 11.4061 8.40965 11.4061 8.41535 11.4118C8.41535 11.4118 8.41725 11.4099 8.41915 11.4099H8.42295C8.42674 11.4099 8.43054 11.4118 8.43624 11.4175C8.44004 11.4194 8.44764 11.4213 8.45524 11.4232C8.47044 11.4269 8.48563 11.4307 8.49513 11.4364H8.50273H8.50653C8.50653 11.4364 8.51413 11.4364 8.51793 11.444C8.51983 11.444 8.52363 11.4459 8.52553 11.4459C8.54262 11.4497 8.55212 11.4535 8.55972 11.4592H8.56352C8.56542 11.4592 8.57302 11.4592 8.57872 11.463H8.58252L8.58632 11.4649C8.59771 11.4706 8.61481 11.4763 8.62431 11.4782C8.62621 11.4763 8.63191 11.4801 8.63571 11.4839C8.63951 11.4858 8.6452 11.4858 8.6509 11.4877C8.6585 11.4896 8.6661 11.4915 8.6737 11.4934L8.6832 11.4991C8.687 11.5009 8.6908 11.501 8.6946 11.5047C8.70029 11.5066 8.70979 11.5085 8.70979 11.5085C8.71359 11.5104 8.71549 11.5104 8.71739 11.5104C8.72119 11.5123 8.72499 11.5123 8.73069 11.5161C8.73449 11.5161 8.73829 11.518 8.74209 11.5199C8.74399 11.5218 8.74589 11.5218 8.74779 11.5237C8.76108 11.5275 8.77438 11.5332 8.78768 11.537C8.80288 11.5408 8.81617 11.5446 8.82757 11.5503H8.83327L8.83707 11.556C8.84087 11.556 8.84657 11.5579 8.85227 11.5598C8.85607 11.5617 8.86177 11.5617 8.86746 11.5636C8.87886 11.5693 8.88836 11.5731 8.89786 11.5769L8.90546 11.5806C8.95865 11.5996 9.00804 11.6205 9.05553 11.6395C9.10682 11.6622 9.15621 11.6831 9.2113 11.7021C9.2208 11.7059 9.2322 11.7078 9.2379 11.7116H9.2417H9.2436C9.2455 11.7116 9.25119 11.7135 9.25309 11.7173C9.25879 11.7192 9.26449 11.7211 9.27019 11.7211C9.27779 11.723 9.28539 11.7249 9.29299 11.7268C9.29679 11.7287 9.29868 11.7306 9.30438 11.7324L9.30818 11.7362C9.31578 11.7381 9.32338 11.74 9.32908 11.7419C9.33668 11.7419 9.34618 11.7457 9.35377 11.7457L9.37467 11.7533C9.39367 11.759 9.41077 11.7647 9.42976 11.7704C9.43356 11.7723 9.43926 11.7742 9.44306 11.7742C9.45256 11.778 9.45826 11.7799 9.46776 11.7837H9.47155L9.47535 11.7875H9.47915C9.48295 11.7875 9.48485 11.7875 9.48675 11.7875H9.49055C9.49625 11.7894 9.50005 11.7913 9.50575 11.7932C9.51145 11.7951 9.51525 11.797 9.52284 11.7989C9.52284 11.7989 9.52854 11.7989 9.53424 11.8046C9.54184 11.8065 9.55134 11.8084 9.56084 11.8102C9.58173 11.814 9.59693 11.8159 9.60263 11.8197L9.60643 11.8178C9.61023 11.8178 9.61403 11.8197 9.61593 11.8254L9.61973 11.8235H9.62733H9.63113C9.63682 11.8235 9.64062 11.8273 9.64442 11.8311C9.67102 11.8368 9.70521 11.8387 9.7451 11.8387C9.7831 11.8387 9.81919 11.8368 9.85338 11.8349C9.89328 11.833 9.92557 11.8311 9.95976 11.8311H9.96736C9.99586 11.8311 10.0244 11.8292 10.0547 11.8292C10.0851 11.8273 10.1136 11.8273 10.1421 11.8273C10.1687 11.8273 10.2124 11.8159 10.2523 11.8065C10.2903 11.7989 10.3264 11.7913 10.3568 11.7875C10.3682 11.7875 10.3796 11.7856 10.3929 11.7837C10.4176 11.7799 10.4423 11.7742 10.4651 11.778C10.4841 11.7818 10.5012 11.7913 10.5145 11.7989C10.5278 11.8084 10.543 11.8159 10.562 11.8159C10.5677 11.8159 10.5772 11.8121 10.5867 11.8084C10.5961 11.8046 10.6056 11.7989 10.6189 11.7989C10.6398 11.797 10.6531 11.8027 10.6664 11.8084C10.6759 11.8121 10.6854 11.8159 10.6949 11.8178C10.7101 11.8197 10.7253 11.8178 10.7424 11.8159C10.7652 11.814 10.7861 11.8121 10.8013 11.8159C10.8222 11.8197 10.8355 11.8292 10.8469 11.8368C10.8621 11.8463 10.8754 11.8558 10.8868 11.8577C10.8982 11.8596 10.9058 11.8558 10.9172 11.852C10.9248 11.8482 10.9362 11.8463 10.9476 11.8444H10.9533C10.9932 11.8444 11.0179 11.8615 11.0407 11.8767C11.0635 11.8899 11.0825 11.9032 11.1129 11.907L11.1394 11.9108C11.185 11.9184 11.2306 11.926 11.2724 11.9393C11.2952 11.9488 11.3142 11.9526 11.3332 11.9583H11.337C11.3446 11.9602 11.3503 11.962 11.356 11.9639C11.375 11.9715 11.3769 11.9696 11.3845 11.9639C11.3883 11.962 11.3921 11.9583 11.3959 11.9564L11.3978 11.9545C11.4054 11.9507 11.4092 11.9507 11.4168 11.9507H11.4206C11.4339 11.9507 11.4358 11.9621 11.4358 11.9677C11.4434 11.9696 11.4491 11.9734 11.4548 11.9753C11.4567 11.9753 11.4605 11.9772 11.4624 11.9772C11.4643 11.9772 11.4643 11.9772 11.4662 11.9772V11.9734H11.4738L11.4757 11.9696L11.4852 11.9677H11.489C11.4909 11.9658 11.4909 11.9658 11.4928 11.9639C11.5004 11.9564 11.508 11.9564 11.5137 11.9564C11.5156 11.9564 11.5156 11.9564 11.5156 11.9545L11.5232 11.9507L11.527 11.9545C11.565 11.9753 11.6087 11.9848 11.6676 11.9848C11.7074 11.9848 11.7473 11.9829 11.791 11.9753H11.8081C11.8385 11.9734 11.8556 11.9715 11.8765 11.9677C11.8822 11.9658 11.8879 11.9658 11.8936 11.9658C11.8993 11.9639 11.9031 11.9639 11.9069 11.9639C11.9107 11.9583 11.9107 11.9564 11.9164 11.9545L11.9221 11.9526L11.9259 11.9507H11.9316C11.9373 11.9488 11.943 11.9469 11.9487 11.945C11.9525 11.945 11.9563 11.9431 11.9601 11.9412C11.9791 11.9336 11.9943 11.9241 12.0114 11.9146C12.0133 11.9127 12.0171 11.9108 12.019 11.907C12.0228 11.9032 12.0266 11.8994 12.0285 11.8975C12.0342 11.8937 12.0399 11.8918 12.0437 11.8918L12.0475 11.8899C12.0494 11.888 12.0513 11.8843 12.0551 11.8824C12.057 11.8805 12.0589 11.8786 12.0608 11.8767C12.0646 11.871 12.0684 11.8691 12.076 11.8634L12.0798 11.8596C12.0874 11.8539 12.1045 11.8406 12.1083 11.8349C12.1083 11.8235 12.1197 11.8178 12.1254 11.8159C12.1273 11.8121 12.1292 11.8102 12.1292 11.8084C12.1311 11.8046 12.133 11.8008 12.1349 11.797C12.1387 11.7932 12.1425 11.7913 12.1463 11.7913C12.1463 11.7856 12.1463 11.7818 12.1482 11.7799C12.1539 11.7723 12.1577 11.7704 12.1615 11.7685L12.1634 11.7666C12.1653 11.7571 12.1729 11.7476 12.1786 11.7419V11.7343C12.1805 11.7287 12.1843 11.7268 12.1862 11.723C12.1919 11.7135 12.1976 11.7021 12.1976 11.6983C12.1976 11.6907 12.2033 11.685 12.2052 11.6812C12.2071 11.6755 12.209 11.6698 12.2166 11.6679C12.2204 11.6565 12.2242 11.6452 12.2261 11.6319C12.228 11.6243 12.2299 11.6148 12.2318 11.6072L12.2374 11.5977C12.2412 11.5863 12.2469 11.5712 12.2488 11.5598V11.556C12.2488 11.5541 12.2488 11.5503 12.2507 11.5465C12.2507 11.5427 12.2526 11.5389 12.2545 11.5351C12.2583 11.5199 12.2583 11.5085 12.2602 11.4972V11.4801C12.2602 11.4706 12.264 11.463 12.2659 11.4592C12.264 11.4535 12.2602 11.4478 12.2602 11.4402V11.4288H12.2659C12.2678 11.4156 12.2678 11.4061 12.2659 11.3966C12.2621 11.3909 12.2621 11.3852 12.2621 11.3776C12.2602 11.3681 12.2621 11.3605 12.2621 11.3548V11.3491L12.2564 11.3454V11.3416C12.2564 11.3321 12.2545 11.3245 12.2545 11.3169V11.3036C12.2526 11.2922 12.2488 11.2789 12.2469 11.2713C12.2469 11.2676 12.245 11.2619 12.245 11.26C12.2431 11.2562 12.2431 11.2543 12.2412 11.2505C12.2393 11.2429 12.2374 11.2391 12.2374 11.2353C12.2374 11.2334 12.2355 11.2315 12.2355 11.2277L12.2299 11.2106C12.228 11.2087 12.228 11.2068 12.228 11.2049L12.2261 11.1992C12.2261 11.1973 12.2261 11.1954 12.2242 11.1935C12.2223 11.1879 12.2223 11.1841 12.2223 11.1803C12.2204 11.1765 12.2204 11.1746 12.2204 11.1727L12.2185 11.167C12.2185 11.1556 12.228 11.1537 12.2526 11.1499C12.2545 11.1499 12.2583 11.148 12.2621 11.148C12.2583 11.1461 12.2583 11.1442 12.2583 11.1442C12.2545 11.1404 12.2526 11.1385 12.2507 11.1347C12.2488 11.1328 12.2469 11.129 12.2469 11.1271C12.245 11.1252 12.2412 11.1233 12.2393 11.1214V11.1176C12.2374 11.112 12.2355 11.1063 12.2337 11.1044C12.2337 11.1025 12.2299 11.1006 12.2299 11.0987L12.228 11.0911C12.2147 11.0721 12.2185 11.0531 12.2204 11.0398V11.0266C12.2204 11.0228 12.2223 11.019 12.2242 11.0152L12.2223 11.0133C12.2166 11.0114 12.1995 11.0019 12.2071 10.9886C12.2071 10.9848 12.2109 10.981 12.2147 10.9791C12.2147 10.9753 12.2147 10.9715 12.2166 10.9677C12.2185 10.9639 12.2242 10.9621 12.228 10.9602C12.228 10.9583 12.228 10.9545 12.228 10.9507C12.2299 10.9488 12.2299 10.945 12.2337 10.9431V10.9393C12.2299 10.9374 12.228 10.9336 12.2242 10.9317C12.209 10.9241 12.1938 10.9165 12.1957 10.9013C12.1995 10.8729 12.1919 10.8577 12.1786 10.8368C12.1748 10.8292 12.1691 10.8216 12.1653 10.814L12.1596 10.8027C12.1482 10.7799 12.1406 10.759 12.1292 10.7419C12.1216 10.7268 12.1102 10.7097 12.1064 10.7021C12.1045 10.7002 12.1045 10.6983 12.1026 10.6964C12.1007 10.6926 12.0988 10.6888 12.095 10.6869C12.0931 10.685 12.0893 10.6831 12.0893 10.6812C12.0855 10.6774 12.0836 10.6736 12.0798 10.6698L12.0779 10.666C12.0741 10.6584 12.0684 10.6528 12.0627 10.6471C12.0589 10.6433 12.0551 10.6414 12.0532 10.6376C12.0494 10.6338 12.0494 10.63 12.0475 10.6281C12.0456 10.6281 12.0437 10.6262 12.0418 10.6262C12.0342 10.6205 12.0323 10.6167 12.0285 10.611C12.0228 10.6053 12.0209 10.6034 12.0171 10.6034L12.0114 10.6015L12.0076 10.5958C12.0057 10.5939 12.0019 10.5939 11.9981 10.592C11.9886 10.5901 11.9772 10.5863 11.9734 10.5731L11.9715 10.5655L11.981 10.5598C11.9848 10.556 11.9905 10.5541 11.9924 10.5541C11.9962 10.5522 12 10.5503 12.0019 10.5503C11.9981 10.5408 11.9905 10.5294 11.9867 10.518C11.9829 10.5142 11.981 10.5085 11.9772 10.5047C11.9753 10.5009 11.9734 10.4953 11.9696 10.4915C11.9677 10.4877 11.9677 10.4858 11.9639 10.482C11.962 10.4801 11.9601 10.4763 11.9563 10.4744C11.9525 10.4706 11.9487 10.4668 11.9449 10.463C11.9411 10.4573 11.9411 10.4516 11.9392 10.4478C11.9411 10.4478 11.9392 10.4459 11.9373 10.4459L11.9316 10.4402L11.9297 10.4364L11.9202 10.4269C11.9183 10.4232 11.9183 10.4194 11.9164 10.4156V10.4118C11.9145 10.4099 11.9126 10.408 11.9107 10.4061C11.9069 10.4023 11.9031 10.4004 11.8993 10.3947C11.8974 10.3909 11.8955 10.3852 11.8917 10.3814C11.8898 10.3776 11.8879 10.3738 11.886 10.37C11.8841 10.3681 11.8803 10.3662 11.8784 10.3643C11.8746 10.3605 11.8708 10.3567 11.8689 10.351C11.8632 10.3491 11.8613 10.3454 11.8575 10.3416L11.8556 10.3397C11.8537 10.3359 11.8537 10.3321 11.8537 10.3302C11.8499 10.3245 11.848 10.3207 11.8442 10.3188C11.8404 10.315 11.8366 10.3112 11.8328 10.3055C11.8328 10.3055 11.8309 10.3036 11.829 10.2998C11.8252 10.296 11.8214 10.2922 11.8157 10.2884C11.8119 10.2846 11.81 10.2789 11.8081 10.2732C11.8062 10.2695 11.8043 10.2657 11.8024 10.2638C11.7986 10.26 11.7967 10.2562 11.7929 10.2543C11.7891 10.2505 11.7872 10.2486 11.7834 10.2448C11.7777 10.2372 11.772 10.2296 11.7663 10.222C11.7606 10.2144 11.7549 10.2087 11.7511 10.2011C11.7473 10.1954 11.7397 10.1879 11.734 10.1822C11.7283 10.1765 11.7207 10.1708 11.7131 10.1613C11.7093 10.1575 11.7074 10.1518 11.7036 10.1461C11.7036 10.1442 11.7017 10.1404 11.6998 10.1385C11.696 10.1328 11.6922 10.1309 11.6903 10.129C11.6865 10.1252 11.6828 10.1214 11.6809 10.1176C11.679 10.1158 11.6752 10.112 11.6733 10.1101C11.6695 10.1063 11.6657 10.1025 11.6638 10.0987C11.66 10.093 11.6562 10.0892 11.6543 10.0835C11.6524 10.0778 11.6505 10.0778 11.6486 10.074C11.6467 10.0721 11.6429 10.0683 11.6391 10.0645C11.6372 10.0626 11.6334 10.0588 11.6296 10.055C11.6277 10.0531 11.6258 10.0512 11.6239 10.0493C11.6182 10.0436 11.6144 10.0398 11.6106 10.0342C11.6068 10.0304 11.6049 10.0247 11.6011 10.0209C11.5992 10.0171 11.5954 10.0133 11.5954 10.0114C11.5935 10.0076 11.5916 10.0057 11.5897 10.0019C11.5859 9.9981 11.5821 9.99621 11.5802 9.99241C11.5726 9.98292 11.5669 9.97533 11.5612 9.96774C11.5555 9.96205 11.5517 9.95446 11.546 9.94877L11.5422 9.94307L11.5365 9.93738C11.5327 9.93549 11.5327 9.92979 11.5308 9.926C11.5289 9.9203 11.527 9.91841 11.5232 9.91651C11.5175 9.91271 11.5156 9.90892 11.5137 9.90323C11.5118 9.89943 11.508 9.89564 11.5061 9.88994L11.5004 9.87856C11.5004 9.87856 11.4985 9.87856 11.4985 9.87666C11.4928 9.87097 11.4776 9.85579 11.4928 9.84061L11.4947 9.83681H11.5004C11.5023 9.83492 11.5061 9.83492 11.508 9.83492L11.5194 9.83681C11.5403 9.83492 11.546 9.83112 11.546 9.82922L11.5479 9.82163C11.546 9.81974 11.5479 9.81784 11.5479 9.81784C11.5441 9.81594 11.5422 9.81215 11.5422 9.80835V9.80266L11.5403 9.80076C11.5346 9.78938 11.5346 9.78368 11.5327 9.77989C11.5327 9.77609 11.5308 9.7742 11.5308 9.7704C11.5289 9.7704 11.5251 9.7666 11.5232 9.7666L11.5175 9.76281V9.75901C11.5175 9.75522 11.5175 9.75142 11.5156 9.74763V9.74383C11.5156 9.74194 11.5137 9.74004 11.5137 9.73814H11.5099L11.508 9.73055C11.5061 9.72676 11.5042 9.72296 11.5042 9.71917C11.5042 9.71917 11.5042 9.71727 11.5023 9.71537C11.4985 9.71158 11.4947 9.70968 11.4947 9.70588C11.4909 9.70209 11.489 9.69829 11.4852 9.6907L11.4795 9.68311C11.4795 9.68122 11.4757 9.67932 11.4738 9.67552C11.47 9.67363 11.4643 9.66983 11.4624 9.66414C11.4586 9.65845 11.4567 9.65465 11.4567 9.65086C11.4529 9.64896 11.451 9.64896 11.4491 9.64706C11.4434 9.64327 11.4434 9.63568 11.4453 9.63188C11.4396 9.62809 11.4358 9.62239 11.4301 9.6167C11.4054 9.58634 11.3769 9.55408 11.356 9.53511C11.3541 9.53131 11.3503 9.52752 11.3465 9.52562C11.3427 9.52562 11.3389 9.52372 11.337 9.52182L11.3332 9.51993C11.3275 9.51423 11.3237 9.51044 11.318 9.50474C11.3142 9.50095 11.3104 9.49526 11.3047 9.49146L11.3028 9.48956C11.299 9.48767 11.2933 9.48577 11.2895 9.48008C11.2876 9.47818 11.2838 9.47439 11.28 9.47059C11.2781 9.46679 11.2762 9.4649 11.2724 9.4611C11.2705 9.4592 11.2648 9.45731 11.261 9.45351C11.2572 9.44972 11.2534 9.44972 11.2496 9.44782C11.2458 9.44402 11.2439 9.44023 11.2401 9.43643C11.2363 9.43454 11.2344 9.43074 11.2306 9.42695C11.2249 9.42695 11.2211 9.42695 11.2154 9.42315C11.2116 9.41936 11.2097 9.41556 11.2078 9.41177C11.2078 9.40987 11.2059 9.40797 11.2059 9.40797C11.2002 9.40228 11.1926 9.39848 11.185 9.39469C11.1755 9.389 11.1679 9.3852 11.1603 9.37951C11.1565 9.37571 11.1546 9.37382 11.1508 9.37002C11.1489 9.36623 11.1451 9.36243 11.1413 9.35864C11.1357 9.35864 11.13 9.35674 11.1262 9.35294C11.1243 9.35104 11.1205 9.34915 11.1205 9.34535C11.1205 9.34346 11.1186 9.34345 11.1186 9.34156C11.1186 9.34156 11.1148 9.33776 11.1148 9.33586L11.1091 9.33397C11.1034 9.33017 11.0996 9.32827 11.0939 9.32448C11.0901 9.32068 11.0863 9.31689 11.0844 9.31309C11.0806 9.3093 11.0787 9.3055 11.0749 9.30361C11.0236 9.25996 10.9856 9.21822 10.9571 9.18027C10.9552 9.17837 10.9533 9.17268 10.9514 9.16698C10.9248 9.1537 10.902 9.14042 10.8811 9.12524C10.8716 9.12903 10.8583 9.13283 10.8412 9.13093C10.826 9.12714 10.7918 9.09678 10.7899 9.0797C10.7861 9.0759 10.7842 9.07211 10.7823 9.06831C10.7747 9.05693 10.7728 9.05313 10.7652 9.04364C10.7519 9.02657 10.7481 9.02467 10.7348 9.01708C10.731 9.01518 10.7291 9.01328 10.7291 9.00949C10.7215 9.00949 10.7177 9.00949 10.7158 9.00949C10.7025 9.00759 10.6987 9.00759 10.6968 9.00949C10.6816 9.02467 10.655 9.02467 10.6322 9.01898C10.6246 9.01708 10.6189 9.01708 10.6113 9.01708L10.5942 9.01518C10.5924 9.01708 10.5904 9.01898 10.5886 9.02087C10.5886 9.02087 10.5867 9.03605 10.5867 9.03985C10.5867 9.04364 10.5942 9.04934 10.598 9.05693C10.6018 9.05693 10.6037 9.06072 10.6075 9.06262C10.6094 9.06642 10.6113 9.07021 10.6113 9.07401C10.6113 9.0759 10.6113 9.0759 10.6132 9.0778C10.6132 9.0797 10.617 9.0816 10.6189 9.08539C10.6246 9.08919 10.6284 9.09298 10.6322 9.09678C10.6341 9.09867 10.636 9.10247 10.6379 9.10626C10.6398 9.10816 10.6417 9.11006 10.6436 9.11385L10.6455 9.11765C10.6512 9.11955 10.6531 9.12144 10.655 9.12334C10.6569 9.13093 10.6569 9.13473 10.6569 9.13852C10.6607 9.14421 10.6645 9.14611 10.6683 9.14991C10.6702 9.1518 10.6721 9.1537 10.6759 9.1575L10.6778 9.16129C10.6816 9.16319 10.6854 9.16509 10.6873 9.16888C10.6892 9.17457 10.6892 9.17837 10.6911 9.18216C10.6949 9.18406 10.6968 9.18406 10.7006 9.18596C10.7044 9.19165 10.7044 9.19734 10.7044 9.20114C10.7063 9.20493 10.7101 9.20873 10.7139 9.21063C10.7177 9.21442 10.7215 9.21822 10.7234 9.22201C10.7519 9.26186 10.7766 9.30361 10.7975 9.34156C10.7975 9.34156 10.8108 9.36433 10.8108 9.36623C10.8127 9.37002 10.8127 9.37382 10.8108 9.37761C10.8051 9.3833 10.8013 9.3852 10.7994 9.3871H10.7956H10.7918C10.7785 9.3833 10.769 9.37382 10.7614 9.36623C10.7595 9.36433 10.7557 9.36243 10.7538 9.36053C10.7329 9.33966 10.7196 9.32068 10.7044 9.29981L10.7006 9.29412C10.7006 9.29412 10.6987 9.29222 10.6968 9.29032C10.693 9.28843 10.6892 9.28273 10.6854 9.27704C10.6835 9.27514 10.6816 9.26945 10.6797 9.26566C10.6797 9.26376 10.6797 9.26186 10.6778 9.25996C10.6683 9.24668 10.6569 9.22581 10.6455 9.22012C10.6417 9.21442 10.6436 9.20683 10.6436 9.20304L10.6417 9.20114C10.6379 9.19924 10.636 9.19545 10.6322 9.19165C10.6303 9.18786 10.6265 9.18406 10.6227 9.18027C10.6189 9.17268 10.6132 9.16509 10.6094 9.15939C10.6056 9.1575 10.6037 9.1537 10.6018 9.1518C10.598 9.14991 10.5961 9.14611 10.5942 9.14421C10.5924 9.14042 10.5886 9.13662 10.5867 9.13283C10.5848 9.13093 10.5829 9.12714 10.581 9.12524C10.5791 9.12714 10.5715 9.12524 10.5639 9.11955C10.5639 9.11765 10.5639 9.11765 10.5639 9.11575H10.5601L10.5582 9.11006C10.5563 9.10816 10.5544 9.10626 10.5544 9.10626L10.5506 9.10437C10.5411 9.09678 10.5354 9.09298 10.5278 9.08729L10.5221 9.08539C10.5164 9.08349 10.5126 9.0816 10.5088 9.0778C10.5069 9.12144 10.5278 9.14611 10.5525 9.17268C10.5772 9.19735 10.6056 9.22581 10.6056 9.27894V9.28653L10.598 9.29032C10.581 9.29602 10.5639 9.29032 10.5563 9.27894C10.5487 9.27514 10.543 9.27135 10.5354 9.26945C10.5411 9.3093 10.5582 9.33586 10.5753 9.36433C10.5942 9.39659 10.6151 9.42695 10.6189 9.47249L10.6208 9.49336L10.6037 9.48767C10.581 9.48008 10.5677 9.463 10.5563 9.44782L10.5487 9.43643C10.5449 9.43454 10.543 9.43074 10.5411 9.42695L10.5354 9.42125C10.524 9.40607 10.5145 9.39279 10.5145 9.3814C10.5145 9.3814 10.5126 9.37761 10.5107 9.37571C10.5107 9.37571 10.5088 9.37571 10.5088 9.37192C10.5069 9.37192 10.505 9.36812 10.5031 9.36812L10.4993 9.36053C10.4955 9.35105 10.4917 9.34535 10.4917 9.33966C10.4917 9.33966 10.486 9.33207 10.4822 9.32068C10.4822 9.31879 10.4803 9.31689 10.4803 9.31499C10.4784 9.31309 10.4765 9.3112 10.4746 9.3074L10.4727 9.30361C10.4689 9.29981 10.4632 9.29032 10.4613 9.28463L10.4575 9.27704C10.4556 9.27135 10.4537 9.26755 10.4537 9.26376C10.4499 9.26186 10.4461 9.25807 10.4442 9.25617C10.4404 9.25048 10.4404 9.24668 10.4404 9.24289C10.4385 9.23909 10.4347 9.23719 10.4328 9.23719C10.429 9.2334 10.4252 9.2315 10.4214 9.22771C10.4176 9.22391 10.4157 9.21822 10.4119 9.21253C10.4138 9.22771 10.4214 9.24289 10.4271 9.25617C10.429 9.25617 10.4328 9.25996 10.4366 9.26376C10.4404 9.26945 10.4404 9.27514 10.4404 9.27894V9.28273C10.4423 9.28463 10.4442 9.28653 10.4461 9.29032C10.4461 9.29032 10.448 9.29032 10.448 9.29412C10.4518 9.29412 10.4537 9.29791 10.4556 9.30361C10.4575 9.3055 10.4575 9.3074 10.4575 9.3093L10.4594 9.31309C10.4594 9.31309 10.4613 9.31309 10.4613 9.31499C10.4651 9.31689 10.467 9.31879 10.4689 9.32258C10.4708 9.32638 10.4708 9.32827 10.4708 9.33017C10.4746 9.33207 10.4784 9.33397 10.4803 9.33776C10.4822 9.34345 10.4822 9.34725 10.4822 9.35104C10.4822 9.35104 10.4822 9.35294 10.4841 9.35484C10.486 9.35674 10.486 9.35864 10.4879 9.36243V9.36623L10.4936 9.36812V9.37761C10.4974 9.39089 10.505 9.42505 10.4803 9.45731L10.4746 9.463L10.467 9.4611C10.4442 9.45541 10.4328 9.43643 10.4252 9.42315C10.4214 9.42125 10.4195 9.41936 10.4157 9.41746C10.4138 9.41556 10.4081 9.41177 10.4062 9.40607C10.3967 9.39469 10.3891 9.38141 10.3796 9.36812C10.372 9.35863 10.3644 9.34725 10.3587 9.33776C10.3549 9.33017 10.3511 9.32448 10.3473 9.31879C10.3435 9.31499 10.3397 9.3112 10.3378 9.3055C10.3264 9.29412 10.3188 9.27894 10.3112 9.27135C10.3093 9.27135 10.3074 9.26945 10.3036 9.26755C10.3017 9.26755 10.2979 9.26566 10.2941 9.26376L10.2922 9.26186C10.2903 9.26186 10.2884 9.26186 10.2865 9.26186C10.2808 9.25996 10.2789 9.25427 10.277 9.25048C10.258 9.24478 10.239 9.23719 10.239 9.20873H10.2352C10.2295 9.20683 10.2238 9.20683 10.22 9.20683C10.22 9.20873 10.2219 9.21252 10.2219 9.21442C10.2257 9.22012 10.2276 9.22391 10.2276 9.22581C10.2352 9.24478 10.2428 9.26186 10.2485 9.27514C10.2561 9.29412 10.2637 9.3093 10.2694 9.32258C10.2694 9.32827 10.2713 9.33207 10.2732 9.33586C10.2789 9.34535 10.2827 9.35484 10.2846 9.36812V9.37382C10.2884 9.37951 10.2903 9.39089 10.2846 9.40038C10.2827 9.40418 10.2789 9.40797 10.2713 9.40987H10.2675L10.2656 9.40797C10.2352 9.39848 10.2162 9.37382 10.2029 9.34915C10.1877 9.32448 10.1782 9.29412 10.1687 9.26566C10.1554 9.22201 10.1402 9.17837 10.106 9.1556C10.1003 9.1575 10.0965 9.15939 10.0908 9.16319C10.0908 9.20114 10.1022 9.2315 10.1136 9.25996C10.1212 9.27325 10.1269 9.28653 10.1326 9.29981H10.1421L10.144 9.3093V9.31689C10.144 9.31879 10.1478 9.32068 10.1497 9.32448V9.32827C10.1516 9.33017 10.1516 9.33207 10.1516 9.33586C10.1516 9.33776 10.1573 9.34156 10.1592 9.34535C10.1649 9.34725 10.1668 9.35294 10.1649 9.36243C10.1668 9.36623 10.1668 9.36812 10.1687 9.37192C10.1687 9.37382 10.1706 9.37761 10.1725 9.3814C10.1801 9.41556 10.1687 9.47628 10.22 9.48577C10.2542 9.49146 10.2789 9.49336 10.3017 9.51993C10.3093 9.52941 10.3169 9.5427 10.3245 9.55218C10.3283 9.55977 10.334 9.58254 10.3397 9.58824C10.3435 9.59013 10.3454 9.59393 10.3473 9.59772C10.3511 9.60152 10.3511 9.60721 10.3511 9.61101C10.3511 9.61101 10.3511 9.6148 10.353 9.6148C10.353 9.6167 10.3549 9.6186 10.3568 9.62049L10.3606 9.62239L10.3644 9.62619V9.63378C10.3663 9.63568 10.3701 9.63757 10.372 9.64137C10.3739 9.64706 10.3758 9.65275 10.3758 9.65845C10.3777 9.65845 10.3796 9.66224 10.3815 9.66793L10.3853 9.67552C10.3891 9.68501 10.391 9.6907 10.3929 9.6964H10.3986V9.70399C10.4043 9.71727 10.4081 9.73814 10.4138 9.74763C10.4195 9.7723 10.4233 9.79886 10.4157 9.82163L10.4081 9.83681L10.3986 9.83112C10.3587 9.81215 10.3454 9.7704 10.3302 9.73055C10.3188 9.68501 10.3055 9.64706 10.2599 9.63757C10.2656 9.66034 10.2732 9.67932 10.2808 9.6964C10.2808 9.69829 10.2827 9.70019 10.2827 9.70209C10.2846 9.70399 10.2865 9.70778 10.2903 9.71158L10.2922 9.71917C10.296 9.72676 10.2979 9.73435 10.2998 9.74004C10.2998 9.74383 10.3017 9.74763 10.3017 9.74953C10.3074 9.76281 10.315 9.77609 10.3207 9.78748C10.3245 9.79127 10.3264 9.79697 10.3283 9.80076C10.3302 9.80456 10.3321 9.80835 10.3321 9.80835L10.3397 9.81784L10.3454 9.82733C10.3454 9.83112 10.3473 9.83492 10.3473 9.83871C10.3473 9.84061 10.3473 9.84061 10.3492 9.84251L10.3587 9.8463L10.3606 9.85199L10.3644 9.86148L10.3682 9.87097C10.3701 9.87476 10.372 9.88046 10.372 9.88425V9.88805C10.3758 9.88994 10.3796 9.89184 10.3815 9.89753C10.3834 9.89753 10.3853 9.89943 10.3853 9.90133C10.3891 9.90892 10.391 9.91271 10.391 9.91651V9.9222L10.3986 9.93169C10.4024 9.93928 10.4062 9.94497 10.4081 9.95067C10.4081 9.95256 10.4081 9.95446 10.4081 9.95446C10.4081 9.95826 10.41 9.96015 10.4157 9.96395L10.4176 9.96964C10.4233 9.97723 10.4252 9.98672 10.4271 9.99431C10.4252 9.9981 10.4271 10.0038 10.429 10.0076C10.4309 10.0095 10.4328 10.0114 10.4347 10.0114C10.4404 10.0209 10.4423 10.0285 10.4461 10.0342L10.448 10.0417L10.4651 10.093C10.4746 10.1176 10.4822 10.1423 10.486 10.167V10.1727V10.1765V10.1822C10.486 10.1841 10.486 10.186 10.4841 10.1879L10.4803 10.2011L10.467 10.1973C10.4404 10.1879 10.4252 10.1803 10.4081 10.1594V10.1632C10.4081 10.167 10.4081 10.1727 10.4062 10.1784V10.1879L10.3986 10.1898C10.4005 10.1898 10.4005 10.1917 10.4005 10.1936C10.4043 10.1954 10.4062 10.1992 10.4081 10.2011L10.41 10.2049V10.2144C10.41 10.2144 10.4138 10.2182 10.4195 10.2258C10.4195 10.2277 10.4233 10.2296 10.4252 10.2315C10.4271 10.2353 10.429 10.2372 10.4328 10.241L10.4347 10.2448V10.2486L10.4385 10.2524C10.4385 10.2562 10.4404 10.2581 10.4404 10.2638C10.4442 10.2638 10.448 10.2657 10.4499 10.2695C10.4518 10.2732 10.4537 10.2751 10.4537 10.2789H10.4613V10.2884C10.4632 10.2903 10.4632 10.2941 10.4613 10.296C10.4651 10.2979 10.467 10.3017 10.4689 10.3055C10.4765 10.3169 10.4727 10.3283 10.4689 10.3359C10.4689 10.3397 10.467 10.3435 10.467 10.3454C10.4727 10.3567 10.4803 10.3681 10.486 10.3795H10.4993L10.5031 10.3852C10.5088 10.3909 10.5126 10.3928 10.5145 10.3985C10.5145 10.3985 10.5164 10.4042 10.5164 10.408C10.5183 10.4118 10.5183 10.4156 10.5202 10.4194C10.5221 10.4213 10.524 10.4232 10.5259 10.425C10.5278 10.4269 10.5278 10.4307 10.5297 10.4326L10.5354 10.4383L10.5278 10.4516H10.5202C10.5145 10.4516 10.5126 10.4516 10.5012 10.444C10.5012 10.4478 10.4993 10.4535 10.4917 10.4592V10.463C10.4955 10.4744 10.4993 10.482 10.5012 10.4915C10.5012 10.4953 10.5031 10.5009 10.505 10.5047C10.5069 10.5123 10.5088 10.518 10.5088 10.5256L10.5107 10.5313C10.5145 10.5389 10.5164 10.5484 10.5145 10.5598L10.5107 10.5693L10.4993 10.5674C10.4974 10.5693 10.4955 10.5712 10.4936 10.5712C10.4898 10.5769 10.486 10.5787 10.486 10.5787C10.4822 10.5787 10.4803 10.5806 10.4765 10.5806C10.4746 10.5806 10.4727 10.5806 10.4689 10.5806L10.467 10.5844L10.4613 10.5863C10.4404 10.5901 10.4176 10.5863 10.3967 10.5825C10.4005 10.5863 10.4024 10.5901 10.4043 10.5939H10.4081C10.4081 10.5939 10.41 10.6072 10.4081 10.6072C10.41 10.6091 10.41 10.6129 10.4081 10.6167L10.4062 10.6243H10.3948L10.3872 10.6186L10.3777 10.6129C10.3758 10.6129 10.3758 10.6129 10.3739 10.6129L10.3682 10.6243L10.3549 10.6186C10.3454 10.6129 10.3378 10.6091 10.334 10.6053H10.3302H10.3245L10.3112 10.5996L10.315 10.592C10.2979 10.592 10.277 10.5977 10.258 10.6034C10.2352 10.6091 10.2086 10.6148 10.1877 10.6129C10.1554 10.611 10.1231 10.6072 10.0927 10.6053L10.0642 10.6015C10.0471 10.5996 10.0301 10.5996 10.0092 10.5996C9.99586 10.5996 9.98066 10.5996 9.96736 10.5996C9.95407 10.5996 9.93887 10.6015 9.92747 10.6015C9.89708 10.6015 9.87618 10.5996 9.85528 10.5939C9.84769 10.592 9.84199 10.592 9.83629 10.592C9.83059 10.5901 9.82489 10.5901 9.82109 10.5882H9.81539L9.81349 10.5844C9.81159 10.5844 9.81159 10.5825 9.80969 10.5825C9.79829 10.5825 9.7907 10.5806 9.785 10.5769C9.7812 10.575 9.7736 10.5731 9.7717 10.5731H9.7679C9.70521 10.5579 9.65772 10.5446 9.60453 10.5275C9.58553 10.5199 9.56274 10.518 9.53804 10.518C9.51715 10.5161 9.49625 10.5142 9.47725 10.5066C9.46775 10.5028 9.45446 10.4972 9.45066 10.4972C9.45066 10.4972 9.44306 10.4953 9.43926 10.4896C9.43546 10.4877 9.43356 10.4877 9.43166 10.4877C9.42786 10.4877 9.42596 10.4877 9.42216 10.4877C9.41646 10.4877 9.41077 10.4839 9.40507 10.4801L9.39747 10.4763C9.39367 10.4763 9.38987 10.4744 9.38607 10.4706C9.38417 10.4687 9.38037 10.4687 9.37847 10.4687C9.37657 10.4687 9.37087 10.4687 9.36517 10.4668C9.35947 10.4649 9.35567 10.4611 9.35188 10.4554C9.34998 10.4573 9.34808 10.4573 9.34618 10.4573L9.33668 10.4554L9.33288 10.4516C9.33288 10.4497 9.33098 10.4478 9.32718 10.4478L9.31958 10.4459C9.31768 10.4459 9.31388 10.444 9.31198 10.4402C9.30818 10.4402 9.30628 10.4402 9.30248 10.4402C9.29869 10.4383 9.29489 10.4383 9.28919 10.4364C9.28729 10.4364 9.28159 10.4307 9.27779 10.4269C9.27209 10.425 9.26829 10.425 9.26449 10.4194C9.25879 10.4175 9.25499 10.4175 9.25119 10.4156C9.2398 10.4137 9.2284 10.4099 9.2208 10.4042C9.2189 10.4042 9.2132 10.4004 9.2132 10.4004H9.2094C9.2056 10.4004 9.2037 10.4004 9.2018 10.3966L9.1942 10.3985L9.1904 10.3966C9.18471 10.3928 9.17901 10.389 9.17331 10.3814L9.17141 10.3776C9.16951 10.3776 9.16381 10.3624 9.15811 10.3529C9.15621 10.3529 9.15431 10.351 9.15241 10.3491H9.14671H9.14291C9.13722 10.3472 9.12962 10.3435 9.12392 10.3397L9.11442 10.334L9.11252 10.3207L9.11062 10.3321C9.10682 10.3321 9.10492 10.3321 9.10112 10.3302Z" fill="white"/>
<g opacity="0.15">
<mask id="mask2_5_2108" style="mask-type:luminance" maskUnits="userSpaceOnUse" x="10" y="10" width="1" height="1">
<path d="M10.448 10.1025H10.353V10.2163H10.448V10.1025Z" fill="white"/>
</mask>
<g mask="url(#mask2_5_2108)">
<path d="M10.4461 10.1897C10.4442 10.1841 10.4423 10.1803 10.4423 10.1746L10.4404 10.1727L10.4347 10.167C10.4309 10.1632 10.4309 10.1594 10.4309 10.1556C10.429 10.1537 10.4271 10.1499 10.4252 10.148C10.4081 10.1271 10.4024 10.1138 10.3891 10.1082C10.3796 10.1044 10.3682 10.0987 10.3644 10.0987C10.3606 10.0968 10.3587 10.0968 10.3549 10.0949H10.353C10.3549 10.0987 10.353 10.1044 10.353 10.1082C10.3549 10.1101 10.3568 10.1119 10.3568 10.1138C10.3606 10.1157 10.3606 10.1176 10.3625 10.1195L10.3644 10.1271C10.3663 10.1271 10.3682 10.129 10.3682 10.1309L10.3701 10.1385C10.372 10.1404 10.372 10.1442 10.372 10.148C10.3758 10.1499 10.3796 10.1537 10.3815 10.1613L10.3853 10.167C10.3872 10.1708 10.391 10.1784 10.3948 10.186C10.3967 10.1897 10.3986 10.1954 10.4005 10.1954C10.4043 10.1992 10.4062 10.2049 10.4062 10.2087H10.41C10.4138 10.1973 10.4233 10.186 10.4461 10.1897Z" fill="white"/>
</g>
</g>
<path d="M8.12105 8.21822C8.12295 8.22201 8.12295 8.22771 8.12485 8.2296C8.12675 8.2315 8.13245 8.2334 8.13625 8.2372C8.14765 8.24289 8.17424 8.25617 8.16095 8.28274C8.14385 8.30551 8.13815 8.32448 8.14195 8.34156C8.15145 8.37571 8.20844 8.40038 8.25403 8.42126C8.27682 8.43074 8.30152 8.44213 8.31672 8.45162C8.4212 8.52752 8.50858 8.65086 8.54468 8.77609C8.57507 8.77989 8.61116 8.77989 8.65486 8.77989C8.87332 8.77989 9.15826 8.74573 9.26085 8.66793C9.29694 8.64137 9.33113 8.57685 9.36343 8.51993C9.37862 8.49146 9.39382 8.4649 9.40522 8.44592C9.41852 8.42315 9.44321 8.37192 9.46791 8.31499C9.5135 8.21253 9.54769 8.14232 9.57049 8.12714C9.66357 8.06072 9.72436 7.99052 9.75665 7.90702C9.73766 7.90702 9.72816 7.91461 9.71486 7.926C9.70916 7.93169 9.70536 7.93738 9.70346 7.94118C9.69966 7.95256 9.69397 7.96774 9.68067 7.96774C9.66927 7.96774 9.66167 7.95636 9.65977 7.95446L9.65787 7.95067V7.94687C9.65027 7.89564 9.67877 7.87097 9.70156 7.852C9.70536 7.8482 9.71106 7.84441 9.71486 7.84061C9.72056 7.81215 9.70346 7.78748 9.68447 7.75332C9.66927 7.72486 9.64837 7.69071 9.64458 7.64706L9.64268 7.63568L9.65407 7.63378C9.66167 7.62998 9.66737 7.62998 9.67497 7.62809C9.67877 7.62429 9.68447 7.62239 9.69017 7.6205C9.68827 7.60152 9.68637 7.59014 9.68637 7.58065C9.68257 7.55978 9.68067 7.5446 9.68257 7.51993C9.65407 7.48767 9.65787 7.43264 9.65977 7.38141C9.66167 7.35674 9.66357 7.33587 9.66167 7.31689C9.65027 7.3112 9.64837 7.29412 9.64837 7.28274C9.63888 7.27704 9.63508 7.26945 9.63318 7.26376C9.63128 7.25997 9.63128 7.25617 9.62938 7.25427C9.62938 7.25427 9.62368 7.25238 9.61988 7.25238C9.61228 7.25048 9.58569 7.24668 9.59138 7.22581V7.10626L9.59898 7.10247C9.64458 7.08539 9.67307 7.07211 9.67307 7.03226C9.66737 7.03036 9.66357 7.02657 9.66357 7.02467C9.66167 7.02088 9.65977 7.01708 9.65977 7.01139C9.64647 7.00759 9.62748 7.00759 9.61228 7.00949C9.60278 7.01139 9.59708 7.01139 9.58948 7.01139C9.56479 7.01139 9.55719 6.99811 9.55529 6.98672V6.98293V6.97723C9.55529 6.97723 9.55339 6.97534 9.55149 6.97344C9.53819 6.95826 9.5268 6.94308 9.5154 6.926C9.504 6.92979 9.5002 6.9279 9.4926 6.926H9.485L9.48121 6.91841C9.48121 6.91651 9.47931 6.91651 9.47171 6.91651L9.45841 6.91841V6.89754C9.45461 6.89564 9.45081 6.89184 9.44511 6.88805C9.43561 6.87856 9.42611 6.87097 9.41472 6.86718C9.39952 6.85579 9.39192 6.84251 9.38812 6.82733C9.38052 6.82164 9.37482 6.81784 9.36913 6.81215L9.35773 6.80076C9.35203 6.79507 9.34633 6.78748 9.34443 6.78179C9.31973 6.76471 9.28934 6.74194 9.26085 6.71537C9.25515 6.70968 9.24945 6.70209 9.24565 6.6926C9.22475 6.68881 9.20765 6.68501 9.18866 6.67932C9.18486 6.67932 9.17916 6.67553 9.17726 6.67173H9.16396C9.13547 6.67932 9.10507 6.69071 9.07658 6.70209L9.06708 6.70589C9.06138 6.71537 9.05758 6.72486 9.05378 6.73814V6.75143H9.04239C9.02339 6.75143 9.02149 6.75332 9.01959 6.76091C9.01959 6.76661 9.01769 6.7723 9.01199 6.77799C9.00819 6.77989 8.99869 6.78179 8.98729 6.77989C8.9854 6.77989 8.9854 6.77989 8.9835 6.77799C8.9835 6.78179 8.9797 6.78368 8.9759 6.78748C8.9721 6.79127 8.9702 6.79507 8.9664 6.79507C8.9455 6.81025 8.9341 6.82164 8.92271 6.83302C8.91891 6.83682 8.91701 6.83871 8.91701 6.83871C8.91131 6.8482 8.90371 6.86338 8.87332 6.85959L8.86002 6.85769L8.86382 6.84441C8.86952 6.81594 8.88091 6.79127 8.89231 6.7685C8.90371 6.74384 8.91321 6.72107 8.91891 6.6926L8.89611 6.68501C8.88281 6.68691 8.87142 6.69071 8.85812 6.6945C8.83342 6.71158 8.82962 6.71537 8.82962 6.71727C8.82962 6.73245 8.81633 6.75143 8.80873 6.75902L8.80683 6.76471C8.80303 6.7685 8.79353 6.7742 8.78973 6.77799C8.78593 6.78179 8.78213 6.78558 8.78023 6.78748C8.77833 6.78748 8.77833 6.78938 8.77643 6.79127C8.77263 6.79697 8.76504 6.80645 8.74984 6.80835L8.74604 6.81025L8.74224 6.80645C8.74034 6.80645 8.74034 6.80456 8.73844 6.80456C8.71754 6.81784 8.70235 6.83302 8.68715 6.85959C8.69475 6.88615 8.69855 6.91651 8.69095 6.95067L8.68715 6.95636C8.67385 6.96964 8.66245 6.97723 8.65106 6.97723C8.64346 6.97723 8.63586 6.97534 8.63016 6.97344C8.62446 6.97154 8.61876 6.96964 8.60926 6.96964C8.60736 6.96964 8.60546 6.97154 8.60167 6.97344C8.60167 6.97344 8.59977 6.97534 8.59787 6.97534C8.59787 6.97723 8.59597 6.97913 8.59597 6.98103C8.59217 6.98672 8.58647 6.99052 8.57127 6.98672C8.57317 7.0038 8.57127 7.02088 8.56937 7.03606C8.56937 7.04934 8.56747 7.06262 8.56937 7.0759L8.56747 7.0797C8.54278 7.12714 8.48959 7.1556 8.4383 7.18217C8.387 7.20683 8.33381 7.2353 8.30722 7.28084C8.29582 7.30551 8.29392 7.31689 8.29202 7.33397C8.29202 7.34915 8.29012 7.36433 8.28442 7.389C8.27303 7.42505 8.26923 7.48387 8.25973 7.55219C8.24263 7.70589 8.22173 7.88046 8.15905 7.93549C8.10396 7.98103 8.10206 8.0778 8.10396 8.18786C8.11725 8.19545 8.12105 8.21063 8.12105 8.21822Z" fill="white"/>
<g opacity="0.15">
<mask id="mask3_5_2108" style="mask-type:luminance" maskUnits="userSpaceOnUse" x="9" y="7" width="1" height="1">
<path d="M9.67483 7.25616H9.66724V7.27514H9.67483V7.25616Z" fill="white"/>
</mask>
<g mask="url(#mask3_5_2108)">
<path d="M9.67394 7.26869V7.2654L9.66724 7.26376V7.26869H9.67394Z" fill="white"/>
</g>
</g>
</g>
<defs>
<clipPath id="clip0_5_2108">
<rect width="17" height="15" fill="white"/>
</clipPath>
</defs>
</svg>
